<svg xmlns="http://www.w3.org/2000/svg" width="113.405" height="101.437" viewBox="0 0 113.405 101.437">
  <g id="career" transform="translate(0 -27.018)">
    <g id="Group_724" data-name="Group 724" transform="translate(95.613 63.937)">
      <g id="Group_723" data-name="Group 723">
        <path id="Path_456" data-name="Path 456" d="M436.057,195.458l-.018-.074a2.215,2.215,0,1,0-4.3,1.064l.013.054a2.215,2.215,0,1,0,4.3-1.044Z" transform="translate(-431.674 -193.7)" fill="#1695b4"/>
      </g>
    </g>
    <g id="Group_726" data-name="Group 726" transform="translate(28.128 69.016)">
      <g id="Group_725" data-name="Group 725" transform="translate(0 0)">
        <path id="Path_457" data-name="Path 457" d="M140.213,240.911a18.188,18.188,0,0,1-7.849-21.359,2.215,2.215,0,1,0-4.2-1.413,22.619,22.619,0,0,0,9.759,26.565,2.215,2.215,0,0,0,2.288-3.793Z" transform="translate(-126.99 -216.631)" fill="#1695b4"/>
      </g>
    </g>
    <g id="Group_728" data-name="Group 728" transform="translate(41.403 55.145)">
      <g id="Group_727" data-name="Group 727" transform="translate(0 0)">
        <path id="Path_458" data-name="Path 458" d="M211.724,160.145a22.618,22.618,0,0,0-23.354-4.731,2.215,2.215,0,1,0,1.544,4.152,18.187,18.187,0,0,1,18.774,3.8,2.215,2.215,0,0,0,3.036-3.225Z" transform="translate(-186.927 -154.004)" fill="#1695b4"/>
      </g>
    </g>
    <g id="Group_730" data-name="Group 730" transform="translate(0 27.018)">
      <g id="Group_729" data-name="Group 729" transform="translate(0 0)">
        <path id="Path_459" data-name="Path 459" d="M111.19,78.4H94.528V73.82a4.044,4.044,0,0,0-4.039-4.039H87.516A37.65,37.65,0,0,0,43.963,40.692a2.215,2.215,0,0,0,.791,4.358,33.229,33.229,0,0,1,38.22,24.73H70.883a4.044,4.044,0,0,0-4.039,4.039V78.4H50.182a2.215,2.215,0,0,0-2.215,2.215V94.2A7.86,7.86,0,0,0,50.1,99.585v11.366A33.227,33.227,0,0,1,18.167,71.077a2.215,2.215,0,1,0-4.34-.883A37.65,37.65,0,0,0,50.1,115.377V123.4a5.046,5.046,0,0,0,.039.613,46.3,46.3,0,0,1-39.864-68.8l7.473,7.508a2.215,2.215,0,0,0,1.57.653h13.93L46.9,77.029A2.215,2.215,0,0,0,50.03,73.9L36.374,60.241V46.311a2.214,2.214,0,0,0-.651-1.568L28.23,37.268A46.319,46.319,0,0,1,92.736,58.292a2.215,2.215,0,0,0,4.019-1.863,50.745,50.745,0,0,0-71.775-22.4l-6.374-6.359a2.215,2.215,0,0,0-3.779,1.568V41.786H2.237a2.215,2.215,0,0,0-1.57,3.777l6.364,6.394a50.723,50.723,0,0,0,43.686,76.494l55.507,0a5.058,5.058,0,0,0,5.052-5.052V99.586A7.833,7.833,0,0,0,113.4,94.2V80.616h0A2.215,2.215,0,0,0,111.19,78.4ZM19.256,34.573,31.945,47.23V55.8L19.256,43.085ZM16.123,46.216l12.69,12.727h-8.58L7.566,46.216ZM71.273,74.21H90.1V78.4H71.273Zm35.574,39.182H92.313a2.215,2.215,0,1,0,0,4.429h14.534v5.58a.624.624,0,0,1-.623.623H57.862l-.047,0H55.124a.622.622,0,0,1-.6-.621V101.978a7.912,7.912,0,0,0,1.332.115H74.122a6.611,6.611,0,0,0,13.13-.015l18.258.012h.005a7.979,7.979,0,0,0,1.332-.114v11.418ZM78.5,101.3V97.407H82.87V101.3a2.183,2.183,0,0,1-4.367,0Zm30.473-7.1a3.461,3.461,0,0,1-3.461,3.461h0L87.3,97.648v-2.03a2.643,2.643,0,0,0-2.64-2.64H76.713a2.643,2.643,0,0,0-2.64,2.64v2.045H55.857A3.464,3.464,0,0,1,52.4,94.2V82.831h56.579V94.2Z" transform="translate(0 -27.018)" fill="#1695b4"/>
      </g>
    </g>
    <g id="Group_732" data-name="Group 732" transform="translate(79.247 113.393)">
      <g id="Group_731" data-name="Group 731">
        <path id="Path_460" data-name="Path 460" d="M361.566,417.631a2.213,2.213,0,1,0,.649,1.566A2.232,2.232,0,0,0,361.566,417.631Z" transform="translate(-357.786 -416.982)" fill="#1695b4"/>
      </g>
    </g>
  </g>
</svg>
