<svg xmlns="http://www.w3.org/2000/svg" width="97.076" height="97.085" viewBox="0 0 97.076 97.085">
  <g id="options" transform="translate(-0.024)">
    <g id="Group_734" data-name="Group 734" transform="translate(0.024 37.854)">
      <g id="Group_733" data-name="Group 733" transform="translate(0)">
        <path id="Path_461" data-name="Path 461" d="M59.246,230.8a5.66,5.66,0,0,0-1.675-3.652l-7.2-7.2a7.552,7.552,0,0,0,3.069-1.857l.183-.183c3.174-3.174,2.919-8.593-.568-12.08a9.376,9.376,0,0,0-6.043-2.782,7.737,7.737,0,0,0-6.037,2.215l-.183.183a7.547,7.547,0,0,0-1.857,3.07l-7.2-7.2a5.26,5.26,0,0,0-7.414-.286l-6.528,6.529a3.378,3.378,0,0,0-.889,3.106,3.745,3.745,0,0,0,2.325,2.725,5.832,5.832,0,0,1,2.028,1.332l.207.207a5.588,5.588,0,0,1,1.678,3.59,3.862,3.862,0,0,1-4.237,4.237,5.588,5.588,0,0,1-3.59-1.678l-.207-.207a5.833,5.833,0,0,1-1.332-2.028,3.745,3.745,0,0,0-2.726-2.325,3.379,3.379,0,0,0-3.106.889l-6.521,6.521a5.26,5.26,0,0,0,.286,7.414l7.2,7.2a7.552,7.552,0,0,0-3.07,1.857l-.183.183c-3.174,3.174-2.919,8.593.568,12.08a9.334,9.334,0,0,0,6.561,2.791,7.722,7.722,0,0,0,5.518-2.224l.183-.183a7.549,7.549,0,0,0,1.857-3.07l7.2,7.2a5.662,5.662,0,0,0,3.652,1.675q.156.009.311.01a4.869,4.869,0,0,0,3.451-1.4l6.209-6.209a9.616,9.616,0,0,0,2.112,3.152l.207.207c3.487,3.487,8.906,3.741,12.08.568s2.919-8.593-.568-12.08l-.207-.207a9.609,9.609,0,0,0-3.152-2.112l6.217-6.217A4.891,4.891,0,0,0,59.246,230.8Zm-4.071,1.08-6.528,6.528a3.378,3.378,0,0,0-.889,3.106,3.745,3.745,0,0,0,2.325,2.726,5.831,5.831,0,0,1,2.028,1.332l.207.207c2.008,2.008,2.263,5.021.568,6.717s-4.709,1.441-6.717-.568l-.207-.207A5.834,5.834,0,0,1,44.63,249.7a3.745,3.745,0,0,0-2.726-2.325,3.378,3.378,0,0,0-3.106.889l-6.521,6.521a1.085,1.085,0,0,1-.852.285,1.9,1.9,0,0,1-1.2-.571l-2.89-2.89,6.293-6.293a1.9,1.9,0,0,0-2.682-2.682l-6.293,6.293-1.964-1.964a3.715,3.715,0,0,0-2.617-1.107,3.461,3.461,0,0,0-.983.142,3.223,3.223,0,0,0-2.267,2.455,3.758,3.758,0,0,1-1.023,1.911l-.183.183c-1.7,1.7-4.709,1.441-6.717-.568s-2.263-5.021-.568-6.717l.183-.183a3.758,3.758,0,0,1,1.911-1.023,3.223,3.223,0,0,0,2.455-2.267,3.643,3.643,0,0,0-.965-3.6l-7.534-7.535a1.9,1.9,0,0,1-.571-1.2A1.088,1.088,0,0,1,4.1,226.6l6.209-6.209a9.616,9.616,0,0,0,2.112,3.152l.207.207c3.487,3.487,8.906,3.741,12.08.568s2.919-8.593-.568-12.08l-.207-.207a9.609,9.609,0,0,0-3.152-2.112L27,203.7a1.514,1.514,0,0,1,2.051.286l7.535,7.535a3.643,3.643,0,0,0,3.6.965,3.224,3.224,0,0,0,2.267-2.455,3.756,3.756,0,0,1,1.023-1.911l.183-.183a4,4,0,0,1,3.126-1.111,5.588,5.588,0,0,1,3.59,1.678c2.008,2.008,2.263,5.021.568,6.717l-.183.183a3.759,3.759,0,0,1-1.911,1.023A3.224,3.224,0,0,0,46.39,218.7a3.643,3.643,0,0,0,.965,3.6l7.535,7.535a1.9,1.9,0,0,1,.571,1.2A1.088,1.088,0,0,1,55.175,231.882Z" transform="translate(-0.024 -199.629)" fill="#1695b4"/>
      </g>
    </g>
    <g id="Group_736" data-name="Group 736" transform="translate(35.257 75.436)">
      <g id="Group_735" data-name="Group 735">
        <path id="Path_462" data-name="Path 462" d="M189.074,398.386a1.9,1.9,0,1,0,.556,1.341A1.91,1.91,0,0,0,189.074,398.386Z" transform="translate(-185.837 -397.83)" fill="#1695b4"/>
      </g>
    </g>
    <g id="Group_738" data-name="Group 738" transform="translate(75.524 23.525)">
      <g id="Group_737" data-name="Group 737">
        <path id="Path_463" data-name="Path 463" d="M401.43,124.621a1.9,1.9,0,1,0,.556,1.341A1.91,1.91,0,0,0,401.43,124.621Z" transform="translate(-398.193 -124.065)" fill="#1695b4"/>
      </g>
    </g>
    <g id="Group_740" data-name="Group 740" transform="translate(37.868 0)">
      <g id="Group_739" data-name="Group 739">
        <path id="Path_464" data-name="Path 464" d="M254.7,43.581a9.678,9.678,0,0,0-3.616-2.289l6.357-6.357a4.891,4.891,0,0,0,1.389-3.762,5.661,5.661,0,0,0-1.675-3.652l-7.061-7.062a7.557,7.557,0,0,0,2.647-1.71l.183-.183c3.174-3.174,2.919-8.593-.568-12.08s-8.906-3.741-12.08-.568l-.183.183a7.562,7.562,0,0,0-1.711,2.648l-7.07-7.07a5.26,5.26,0,0,0-7.414-.286l-6.357,6.357a9.678,9.678,0,0,0-2.289-3.616l-.207-.207C211.558.441,206.14.186,202.965,3.36s-2.919,8.593.567,12.08l.207.207a9.679,9.679,0,0,0,3.616,2.289L201,24.292a5.26,5.26,0,0,0,.286,7.414l7.541,7.536a3.644,3.644,0,0,0,3.6.965,3.224,3.224,0,0,0,2.267-2.455,3.756,3.756,0,0,1,1.023-1.911l.183-.183a4,4,0,0,1,3.126-1.111,5.809,5.809,0,0,1,5.269,5.269,4,4,0,0,1-1.111,3.127l-.183.183a3.758,3.758,0,0,1-1.911,1.023,3.223,3.223,0,0,0-2.455,2.267,3.643,3.643,0,0,0,.964,3.6l7.528,7.534a5.638,5.638,0,0,0,3.97,1.68,4.825,4.825,0,0,0,3.444-1.394l6.357-6.357a9.679,9.679,0,0,0,2.288,3.616l.207.207c3.487,3.487,8.906,3.741,12.08.568s2.919-8.593-.568-12.08Zm-1.907,9.6c-1.7,1.7-4.708,1.441-6.716-.568l-.207-.207a5.842,5.842,0,0,1-1.432-2.309,3.783,3.783,0,0,0-2.7-2.494,3.373,3.373,0,0,0-3.2.867l-6.676,6.676a1.087,1.087,0,0,1-.852.285,1.9,1.9,0,0,1-1.2-.571l-7.2-7.2a7.552,7.552,0,0,0,3.07-1.857l.183-.183a7.74,7.74,0,0,0,2.215-6.037,9.6,9.6,0,0,0-8.825-8.825,7.741,7.741,0,0,0-6.037,2.215l-.183.183a7.55,7.55,0,0,0-1.857,3.07l-7.21-7.2a1.9,1.9,0,0,1-.571-1.2,1.088,1.088,0,0,1,.285-.852l6.676-6.676a3.373,3.373,0,0,0,.867-3.2,3.783,3.783,0,0,0-2.494-2.7,5.847,5.847,0,0,1-2.309-1.431l-.207-.207c-2.008-2.008-2.263-5.021-.568-6.717s4.708-1.441,6.717.568l.207.207A5.845,5.845,0,0,1,214,9.125a3.782,3.782,0,0,0,2.7,2.493,3.373,3.373,0,0,0,3.2-.867l6.676-6.676a1.514,1.514,0,0,1,2.051.286L236,11.729a3.666,3.666,0,0,0,3.5.993,3.233,3.233,0,0,0,2.317-2.279,3.737,3.737,0,0,1,.962-1.66l.183-.183c1.7-1.7,4.708-1.441,6.717.568s2.263,5.021.568,6.717l-.183.183a3.734,3.734,0,0,1-1.66.962,3.233,3.233,0,0,0-2.279,2.317,3.667,3.667,0,0,0,.993,3.5l7.359,7.359a1.9,1.9,0,0,1,.571,1.2,1.088,1.088,0,0,1-.285.852L251.714,35.3l-6.284-6.284a1.9,1.9,0,1,0-2.682,2.682l6.284,6.284-.952.952a3.373,3.373,0,0,0-.867,3.2,3.783,3.783,0,0,0,2.493,2.7,5.847,5.847,0,0,1,2.309,1.432l.207.207C254.232,48.477,254.486,51.491,252.791,53.186Z" transform="translate(-199.606 0)" fill="#1695b4"/>
      </g>
    </g>
  </g>
</svg>
