<svg xmlns="http://www.w3.org/2000/svg" width="93.614" height="95.084" viewBox="0 0 93.614 95.084">
  <path id="positive-vote" d="M92.972,40.735a6.811,6.811,0,0,0-4.218-2.9,6.85,6.85,0,0,0-4.568-9.874,6.866,6.866,0,0,0-.355-6.977,6.8,6.8,0,0,0-4.218-2.9,6.857,6.857,0,0,0-9.857-8.905l-6.826,4.521a42.658,42.658,0,0,0-11.526-3.9,31.694,31.694,0,0,0-4.4-5.321L44.183,1.734A6.179,6.179,0,0,0,34.73,9.582q.111.169.218.339A43.011,43.011,0,1,0,83.973,66.685a1.478,1.478,0,1,0-2.781-1,40.106,40.106,0,0,1-50.33,24.41l12.029-7.966h0l10-6.62h0a4.033,4.033,0,0,0,1.136-5.588l-.132-.2,1.942-1.286a6.586,6.586,0,0,1,4.693-1.014,9.533,9.533,0,0,0,6.794-1.469L83.434,55.277a40.138,40.138,0,0,1-.545,4.152,1.478,1.478,0,0,0,1.184,1.724,1.442,1.442,0,0,0,.271.025A1.479,1.479,0,0,0,85.8,59.969a43.24,43.24,0,0,0,.707-6.724l4.539-3.006a6.858,6.858,0,0,0,1.931-9.5ZM60.061,15.593l-4.517,2.992-.889-2.4a31.636,31.636,0,0,0-1.269-2.939,39.687,39.687,0,0,1,6.675,2.343ZM13.243,25.843a40.056,40.056,0,0,1,23.12-13.182,18.265,18.265,0,0,1,.921,11.062L33.679,39.3a4.024,4.024,0,0,0-5.16-.6L18.309,45.456h0L3.58,55.209c-.081-1.039-.123-2.086-.123-3.132a40.041,40.041,0,0,1,9.785-26.235Zm38.478,46.51a1.071,1.071,0,0,1-.461.683h0L42.479,78.85l-16.3-24.3a1.478,1.478,0,0,0-2.456,1.647L40.014,80.483l-12.535,8.3A40.176,40.176,0,0,1,3.967,58.443L18.71,48.711l1.7,2.532A1.479,1.479,0,0,0,22.864,49.6l-1.685-2.514,8.974-5.923a1.076,1.076,0,0,1,1.49.3L51.564,71.546a1.066,1.066,0,0,1,.157.807ZM91.077,45.3a3.874,3.874,0,0,1-1.669,2.476L84.219,51.21l-.005,0L65.693,63.478A6.582,6.582,0,0,1,61,64.493a9.538,9.538,0,0,0-6.794,1.469l-1.942,1.286L35.948,42.61,40.165,24.39A21.242,21.242,0,0,0,38.61,10.446a1.449,1.449,0,0,0-.062-.131,20.914,20.914,0,0,0-1.353-2.366,3.223,3.223,0,0,1,4.93-4.093l2.824,2.738a28.887,28.887,0,0,1,6.932,10.624l1.538,4.143.009.022.012.029c.011.025.021.049.032.068a1.459,1.459,0,0,0,.1.183,1.477,1.477,0,0,0,2.049.416L71.39,11.637a3.9,3.9,0,1,1,4.308,6.5l-1.369.907h0l-3.053,2.023-.012.008c-.017.012-.034.024-.048.036a1.478,1.478,0,0,0,1.692,2.422l3.056-2.024a3.9,3.9,0,0,1,4.305,6.506l-4.424,2.93a1.478,1.478,0,1,0,1.632,2.465l.685-.453,2.369-1.569A3.9,3.9,0,0,1,84.838,37.9l-2.21,1.463-.035.023-2.179,1.443a1.479,1.479,0,1,0,1.632,2.466l.685-.453h0L85.1,41.269A3.9,3.9,0,0,1,91.077,45.3Zm0,0" transform="translate(-0.501 0)" fill="#1695b4"/>
</svg>
