<svg xmlns="http://www.w3.org/2000/svg" width="91.719" height="101.437" viewBox="0 0 91.719 101.437">
  <g id="sales" transform="translate(-0.499 0)">
    <path id="Path_465" data-name="Path 465" d="M92.495,97.813c-4.661-4.64-10.05-.3-10.05-.3V73.088a1.486,1.486,0,1,0-2.971,0V99.607s-7.085,5.585-10.13,6.95V62.573a3.712,3.712,0,0,1,3.708-3.708h2.715a3.712,3.712,0,0,1,3.708,3.708v4.432a1.486,1.486,0,1,0,2.971,0V62.573a6.686,6.686,0,0,0-6.679-6.679H73.051a6.687,6.687,0,0,0-6.68,6.679v45.162a15.614,15.614,0,0,1-2.72.506V76.916A6.72,6.72,0,0,0,56.94,70.2H54.291a6.72,6.72,0,0,0-6.712,6.713V92.055L44.858,93.5V88.461a6.05,6.05,0,0,0-6.043-6.043H34.829a6.05,6.05,0,0,0-6.043,6.043v13.57l-4.852,2.575L10.311,108.5A9.39,9.39,0,0,0,3.8,119.89l1.524,5.863A1.486,1.486,0,1,0,8.2,125l-1.524-5.862a6.381,6.381,0,0,1,4.449-7.786l12.456-3.56,9.362,24.986a6.655,6.655,0,0,1-4.424,8.206l-9.413,2.138a6.161,6.161,0,0,1-7.36-4.479l-1.911-7.353a1.486,1.486,0,1,0-2.877.748L8.873,139.4a9.114,9.114,0,0,0,8.829,6.861c3,0,11.478-2.371,11.478-2.371a9.156,9.156,0,0,0,6.932-10.821l32.566-7.973a18.739,18.739,0,0,0,7.392-3.7l15.848-13.022a7.048,7.048,0,0,0,.577-10.556Zm-38.2-24.639H56.94a3.745,3.745,0,0,1,3.74,3.741v31.4l-9.376,0c-.861-.008-.265-.577-.218-.615l2.7-2.187a14.123,14.123,0,0,0,4.89-8.434A5.892,5.892,0,0,0,50.55,90.5V76.916a3.745,3.745,0,0,1,3.74-3.741ZM31.758,88.461a3.075,3.075,0,0,1,3.071-3.072h3.987a3.076,3.076,0,0,1,3.072,3.072v6.615l-10.13,5.377V88.461Zm58.274,17.613L74.183,119.1a15.732,15.732,0,0,1-6.212,3.109l-32.806,8.032-8.823-23.545,25.19-13.372a2.92,2.92,0,0,1,4.231,3.161,11.234,11.234,0,0,1-3.849,6.718l-2.7,2.188a3.318,3.318,0,0,0,2.087,5.9l10.826,0h.008A18.527,18.527,0,0,0,72.847,107.9l12.1-8.508a4.185,4.185,0,0,1,5.422.5c.833.851,2.465,3.381-.337,6.183Zm0,0" transform="translate(-2.405 -44.821)" fill="#fff"/>
    <path id="Path_466" data-name="Path 466" d="M76.028,425.093a5.854,5.854,0,1,0-5.854,5.854A5.861,5.861,0,0,0,76.028,425.093Zm-8.736,0a2.882,2.882,0,1,1,2.882,2.882A2.885,2.885,0,0,1,67.292,425.093Zm0,0" transform="translate(-51.177 -336.179)" fill="#fff"/>
    <path id="Path_467" data-name="Path 467" d="M8.311,46.653l21.6-21.766L34.77,27.4a4.57,4.57,0,0,0,5.27-.767L51.8,15.315s-.323,5.813,4.571,5.813a4.577,4.577,0,0,0,4.571-4.571V4.57c0-.014,0-.029,0-.043A4.326,4.326,0,0,0,56.368,0H44.487A4.576,4.576,0,0,0,39.916,4.57c0,5.024,5.113,4.571,5.113,4.571l-8.97,8.634-4.929-2.549a4.553,4.553,0,0,0-5.345.84L1.823,40.213a4.576,4.576,0,0,0,.025,6.464,4.506,4.506,0,0,0,6.464-.025Zm-4.38-4.346L27.9,18.159a1.351,1.351,0,0,1,1.871-.293L35.64,20.9a1.486,1.486,0,0,0,1.713-.249L49.745,8.726A1.486,1.486,0,0,0,48.715,6.17H44.487a1.6,1.6,0,0,1,0-3.2H56.369a1.4,1.4,0,0,1,1.6,1.59c0,.013,0,.026,0,.04V16.557a1.6,1.6,0,0,1-3.2,0V11.823a1.485,1.485,0,0,0-2.516-1.07L37.979,24.492a1.6,1.6,0,0,1-1.843.269l-5.828-3.014a1.487,1.487,0,0,0-1.737.273L6.2,44.56a1.533,1.533,0,0,1-2.262.009,1.6,1.6,0,0,1-.009-2.261Zm0,0" transform="translate(0 0)" fill="#fff"/>
  </g>
</svg>
