<svg id="sticky-notes" xmlns="http://www.w3.org/2000/svg" width="93.571" height="93.571" viewBox="0 0 93.571 93.571">
  <path id="Path_468" data-name="Path 468" d="M72.128,79.077H9.747A9.758,9.758,0,0,1,0,69.33V14.747A9.758,9.758,0,0,1,9.747,5H37.039a1.949,1.949,0,1,1,0,3.9H9.747A5.855,5.855,0,0,0,3.9,14.747V69.33a5.855,5.855,0,0,0,5.848,5.848H71.321L89.672,56.827V14.747A5.855,5.855,0,0,0,83.824,8.9H56.533a1.949,1.949,0,0,1,0-3.9H83.824a9.758,9.758,0,0,1,9.747,9.747V57.634A1.963,1.963,0,0,1,93,59.014L73.508,78.508A1.963,1.963,0,0,1,72.128,79.077ZM91.622,57.634h0Z" transform="translate(0 14.494)" fill="#1695b4"/>
  <path id="Path_469" data-name="Path 469" d="M19.949,41.393A1.95,1.95,0,0,1,18,39.443V19.949A1.95,1.95,0,0,1,19.949,18H39.443a1.949,1.949,0,0,1,0,3.9H21.9V39.443A1.95,1.95,0,0,1,19.949,41.393Z" transform="translate(52.178 52.178)" fill="#1695b4"/>
  <path id="Path_470" data-name="Path 470" d="M13.449,26.393A1.95,1.95,0,0,1,11.5,24.443V4.949a1.949,1.949,0,0,1,3.9,0V24.443A1.95,1.95,0,0,1,13.449,26.393Z" transform="translate(33.336 8.696)" fill="#1695b4"/>
  <path id="Path_471" data-name="Path 471" d="M17.8,15.6a7.8,7.8,0,1,1,7.8-7.8A7.805,7.805,0,0,1,17.8,15.6Zm0-11.7a3.9,3.9,0,1,0,3.9,3.9A3.9,3.9,0,0,0,17.8,3.9Z" transform="translate(28.988)" fill="#1695b4"/>
  <path id="Path_472" data-name="Path 472" d="M64.431,14.9H5.949a1.949,1.949,0,1,1,0-3.9H64.431a1.949,1.949,0,1,1,0,3.9Z" transform="translate(11.595 31.887)" fill="#1695b4"/>
  <path id="Path_473" data-name="Path 473" d="M64.431,18.9H5.949a1.949,1.949,0,0,1,0-3.9H64.431a1.949,1.949,0,1,1,0,3.9Z" transform="translate(11.595 43.482)" fill="#1695b4"/>
  <path id="Path_474" data-name="Path 474" d="M48.836,22.9H5.949a1.949,1.949,0,0,1,0-3.9H48.836a1.949,1.949,0,0,1,0,3.9Z" transform="translate(11.595 55.077)" fill="#1695b4"/>
</svg>
