<svg xmlns="http://www.w3.org/2000/svg" width="94.755" height="95.087" viewBox="0 0 94.755 95.087">
  <g id="support" transform="translate(-0.894)">
    <path id="Path_475" data-name="Path 475" d="M246.906,12.083a1.87,1.87,0,0,0,1.87-1.87V1.87a1.87,1.87,0,1,0-3.741,0v8.342A1.871,1.871,0,0,0,246.906,12.083Z" transform="translate(-198.801)" fill="#1695b4"/>
    <path id="Path_476" data-name="Path 476" d="M93.824,131.151l-3.3-3.295a6.263,6.263,0,0,0-7.411-1.057l-6.226-6.219.3-.3a6.491,6.491,0,0,0,0-9.166,6.42,6.42,0,0,0-3.256-1.761,6.532,6.532,0,0,0,.258-1.82,6.477,6.477,0,0,0-5.152-6.344,6.531,6.531,0,0,0,.258-1.82,6.471,6.471,0,0,0-5.152-6.341,6.473,6.473,0,0,0-6.918-8.261L44.886,82.43c-1.882-.357-4.232-.593-5.715.76a3.378,3.378,0,0,0-.283.293,6.5,6.5,0,0,0-6.824,1.5,6.435,6.435,0,0,0-1.895,4.585,6.54,6.54,0,0,0,.257,1.82,6.478,6.478,0,0,0-5.151,6.337,6.521,6.521,0,0,0,.258,1.825,6.485,6.485,0,0,0-4.02,10.008,6.481,6.481,0,0,0-2.49,10.722l.3.3L13.1,126.8a6.253,6.253,0,0,0-7.075,1.226l-3.306,3.3a6.248,6.248,0,0,0,0,8.823l4.126,4.121a1.87,1.87,0,0,0,2.643-2.646L5.361,137.5a2.508,2.508,0,0,1,0-3.529l3.306-3.3a2.5,2.5,0,0,1,3.051-.374,1.886,1.886,0,0,0,.235.288,1.862,1.862,0,0,0,.537.374l18.96,18.933a1.842,1.842,0,0,0,.9.911,2.5,2.5,0,0,1-.1,3.415l-3.3,3.3a2.512,2.512,0,0,1-3.536,0l-4.126-4.126a1.87,1.87,0,0,0-2.645,2.645l4.129,4.129a6.262,6.262,0,0,0,8.82,0l3.305-3.3a6.254,6.254,0,0,0,.876-7.724l7.008-7,.022-.023c.8-.83,3.037-.674,5.2-.524a26.9,26.9,0,0,0,4.92.033l7.675,7.665a6.251,6.251,0,0,0,1.061,7.4l3.305,3.3a6.254,6.254,0,0,0,8.822,0l20.046-20.022a6.247,6.247,0,0,0,0-8.824ZM44.189,86.106,52.3,87.641,47.447,92.5a11.791,11.791,0,0,1-2.91-2.115c-1.546-1.479-2.652-3.187-2.753-4.252a.005.005,0,0,1,0,0h0a1.635,1.635,0,0,1-.008-.184,6.338,6.338,0,0,1,2.415.163Zm-9.482,1.525A2.759,2.759,0,0,1,38.2,87.3c.607,2.544,2.777,4.85,3.753,5.784a13.851,13.851,0,0,0,5.389,3.339,2.745,2.745,0,0,1-4.2,3.506h0l-8.435-8.42a2.754,2.754,0,0,1,0-3.877ZM29.82,95.792a2.759,2.759,0,0,1,3.886,0l6.792,6.778a2.749,2.749,0,0,1-3.891,3.884h0l-5.153-5.152-.025-.024-1.612-1.611a2.745,2.745,0,0,1,0-3.879Zm-4.9,8.16a2.767,2.767,0,0,1,3.874-.013l5.169,5.166a2.745,2.745,0,0,1-3.89,3.875L28.2,111.109h0l-3.277-3.273a2.752,2.752,0,0,1,0-3.882Zm-3.257,9.8a2.765,2.765,0,0,1,3.892,0l1.876,1.874a2.745,2.745,0,0,1-3.892,3.873l-.235-.234-.009-.009-.011-.01-1.621-1.614a2.747,2.747,0,0,1,0-3.879Zm38.115,21.257a1.87,1.87,0,0,0-2.645,0l-1.664,1.662c-1.581,1.581-4.446,1.382-7.217,1.19-3.009-.209-6.12-.425-8.133,1.642l-6.889,6.881L16,129.183l6.1-6.086a6.486,6.486,0,0,0,9.873-5.532c0-.016,0-.032,0-.048h.048a6.47,6.47,0,0,0,6.484-6.476c0-.016,0-.032,0-.048h.049a6.462,6.462,0,0,0,6.484-6.526h.05a6.488,6.488,0,0,0,5.536-9.861l5.344-5.341a2.744,2.744,0,0,1,1.4-.748c.056-.006.111-.015.165-.026a2.741,2.741,0,0,1,2.328,4.652l-1.627,1.621-.017.016-1.874,1.871A1.87,1.87,0,1,0,58.99,99.3l1.634-1.632h0l.247-.246a2.755,2.755,0,0,1,3.881.009,2.745,2.745,0,0,1,0,3.877l-1.637,1.64h0l-1.874,1.867a1.87,1.87,0,0,0,2.64,2.65l1.883-1.875a2.745,2.745,0,0,1,3.885,3.88l-3.263,3.264a1.87,1.87,0,1,0,2.645,2.644l1.6-1.6.028-.025a2.745,2.745,0,0,1,3.886,3.879l-1.626,1.624,0,0,0,0-2.581,2.578a1.87,1.87,0,0,0,2.643,2.647l1.262-1.261,6.05,6.043L63.06,146.472l-6.172-6.165a7.355,7.355,0,0,0,1.229-.989l1.663-1.661a1.87,1.87,0,0,0,0-2.645Zm31.4,2.316L71.135,157.351a2.514,2.514,0,0,1-3.535,0l-3.305-3.3a2.5,2.5,0,0,1,0-3.525L84.341,130.5a2.514,2.514,0,0,1,3.536,0l3.3,3.295a2.507,2.507,0,0,1,0,3.53Z" transform="translate(0 -66.896)" fill="#1695b4"/>
    <path id="Path_477" data-name="Path 477" d="M89.088,12.741a1.87,1.87,0,0,0,2.642-2.648l-6.815-6.8a1.87,1.87,0,1,0-2.642,2.648Z" transform="translate(-65.818 -2.235)" fill="#1695b4"/>
    <path id="Path_478" data-name="Path 478" d="M373.522,13.288a1.865,1.865,0,0,0,1.322-.547l6.81-6.8a1.87,1.87,0,1,0-2.643-2.646l-6.81,6.8a1.87,1.87,0,0,0,1.322,3.193Z" transform="translate(-301.901 -2.235)" fill="#1695b4"/>
    <path id="Path_479" data-name="Path 479" d="M60.466,430.752a1.87,1.87,0,0,0,.023,2.645l.005.005a1.87,1.87,0,1,0-.028-2.65Z" transform="translate(-48.072 -350.299)" fill="#1695b4"/>
    <path id="Path_480" data-name="Path 480" d="M334.385,335.86a1.871,1.871,0,1,0-.84-3.541l-.01.005a1.869,1.869,0,0,0,.851,3.536Z" transform="translate(-270.029 -270.438)" fill="#1695b4"/>
  </g>
</svg>
