<svg xmlns="http://www.w3.org/2000/svg" width="89.067" height="93.537" viewBox="0 0 89.067 93.537">
  <g id="work-from-home" transform="translate(-12.236)">
    <g id="Group_742" data-name="Group 742" transform="translate(12.236 0)">
      <g id="Group_741" data-name="Group 741" transform="translate(0 0)">
        <path id="Path_481" data-name="Path 481" d="M242.189,176.165a3.605,3.605,0,0,0-2.76,1.282,1.37,1.37,0,0,0,2.093,1.768.872.872,0,0,1,1.342.011,1.37,1.37,0,0,0,2.121-1.734A3.6,3.6,0,0,0,242.189,176.165Z" transform="translate(-197.667 -143.988)" fill="#1695b4"/>
        <path id="Path_482" data-name="Path 482" d="M220.32,153.827a1.37,1.37,0,0,0,2.093,1.768,5.409,5.409,0,0,1,8.323.067,1.37,1.37,0,0,0,2.121-1.734,8.149,8.149,0,0,0-12.537-.1Z" transform="translate(-182.048 -123.365)" fill="#1695b4"/>
        <path id="Path_483" data-name="Path 483" d="M225.828,319.829a1.37,1.37,0,0,0,1.37-1.37v-2.42a1.37,1.37,0,0,0-2.74,0v2.42A1.37,1.37,0,0,0,225.828,319.829Z" transform="translate(-185.695 -257.193)" fill="#1695b4"/>
        <path id="Path_484" data-name="Path 484" d="M274.008,319.829a1.37,1.37,0,0,0,1.37-1.37v-2.42a1.37,1.37,0,0,0-2.74,0v2.42A1.37,1.37,0,0,0,274.008,319.829Z" transform="translate(-225.074 -257.193)" fill="#1695b4"/>
        <path id="Path_485" data-name="Path 485" d="M98.858,38.329,58.665.746a2.783,2.783,0,0,0-3.791,0h0L14.681,38.329A7.642,7.642,0,0,0,19.9,51.554a7.607,7.607,0,0,0,3.732-.972V92.167A1.37,1.37,0,0,0,25,93.537H88.537a1.37,1.37,0,0,0,1.37-1.37V50.582a7.607,7.607,0,0,0,3.732.972,7.643,7.643,0,0,0,5.22-13.225ZM87.167,90.8h-9.53V77.532a1.37,1.37,0,1,0-2.74,0V90.778H38.641v-23.8a.134.134,0,0,1,.134-.134H74.763a.134.134,0,0,1,.134.134v4.144a1.37,1.37,0,0,0,2.74,0V66.981a2.877,2.877,0,0,0-2.874-2.874H69.049a12.576,12.576,0,0,0,.485-3.454v-.268a20.858,20.858,0,0,0,4.615-6.755,11.822,11.822,0,0,0,.422-7.065,9.408,9.408,0,0,0-4.94-5.6c-1.973-1.052-6.313-2.687-13.219-1.812a21.435,21.435,0,0,0-5.546,1.425,9.412,9.412,0,0,0-7.462.244,11.48,11.48,0,0,0-1.5.946,1.37,1.37,0,1,0,1.646,2.19,8.755,8.755,0,0,1,1.139-.719,6.64,6.64,0,0,1,5.578.065,1.371,1.371,0,0,0,1.169.012,18.229,18.229,0,0,1,5.316-1.446c2.641-.334,7.657-.582,11.586,1.512,3.656,1.949,4.674,4.931,3.2,9.386A16.2,16.2,0,0,1,69.534,56.2V54.972A1.37,1.37,0,0,0,68.218,53.6c-12.182-.485-15.256-5.615-15.324-5.733a1.365,1.365,0,0,0-2.531.3c-.008.03-.876,2.994-5.537,5.94a1.37,1.37,0,0,0-.638,1.158V56.2a16.2,16.2,0,0,1-2.013-3.428,14.2,14.2,0,0,1-.833-4.242,1.37,1.37,0,0,0-1.37-1.358H39.96A1.37,1.37,0,0,0,38.6,48.553a16.838,16.838,0,0,0,.971,5.076,20.866,20.866,0,0,0,4.643,6.783v.241a12.6,12.6,0,0,0,.482,3.454H38.775A2.877,2.877,0,0,0,35.9,66.981V90.8h-9.53V48.282L56.745,18.84a.036.036,0,0,1,.049,0L87.167,48.282ZM46.927,56.009a17.886,17.886,0,0,0,4.8-4.59q.143-.208.266-.4c2.01,1.909,6.33,4.673,14.8,5.255v4.384a9.859,9.859,0,0,1-.622,3.454H47.578a9.858,9.858,0,0,1-.622-3.454ZM98.2,45.712a4.824,4.824,0,0,1-4.56,3.1,4.878,4.878,0,0,1-3.413-1.383L58.7,16.872a2.82,2.82,0,0,0-3.863,0L23.313,47.432A4.878,4.878,0,0,1,19.9,48.814a4.9,4.9,0,0,1-3.349-8.484L56.745,2.747a.036.036,0,0,1,.048,0L96.987,40.33A4.824,4.824,0,0,1,98.2,45.712Z" transform="translate(-12.236 0)" fill="#1695b4"/>
        <path id="Path_486" data-name="Path 486" d="M232.009,400.339a5.372,5.372,0,1,0,5.372,5.372A5.378,5.378,0,0,0,232.009,400.339Zm0,8a2.632,2.632,0,1,1,2.632-2.632A2.635,2.635,0,0,1,232.009,408.343Z" transform="translate(-187.476 -327.215)" fill="#1695b4"/>
      </g>
    </g>
  </g>
</svg>
