<svg xmlns="http://www.w3.org/2000/svg" width="16.697" height="11.384" viewBox="0 0 16.697 11.384"><g transform="translate(0 -74.667)"><g transform="translate(0 74.667)"><g transform="translate(0 0)"><path d="M172.944,170.667a2.277,2.277,0,1,0,2.277,2.277A2.279,2.279,0,0,0,172.944,170.667Z" transform="translate(-164.596 -167.252)" fill="#fff"/><path d="M8.348,74.667A8.976,8.976,0,0,0,0,80.359a8.968,8.968,0,0,0,16.7,0A8.972,8.972,0,0,0,8.348,74.667Zm0,9.487a3.795,3.795,0,1,1,3.795-3.795A3.8,3.8,0,0,1,8.348,84.154Z" transform="translate(0 -74.667)" fill="#fff"/></g></g></g></svg>