<svg xmlns="http://www.w3.org/2000/svg" width="33.114" height="26.55" viewBox="0 0 33.114 26.55"><path d="M-2114.57,349.655c-.35-3.157.636-5.514,3.192-6.961,2.5-1.415,4.942-1.072,7.278.628a2.772,2.772,0,0,0,1.932.144,20.527,20.527,0,0,1,2.553-.675l-2.035,2.934,2.664-.611a2.955,2.955,0,0,1-.225.512c-2.076,2.774-2.3,3.29-2.972,6.844a18.078,18.078,0,0,1-25.927,12.82c-.365-.185-.7-.435-1.412-.886,3.427,0,6.265-.577,8.845-2.594-2.605-.637-4.65-1.734-5.533-4.425l2.389-.152c-2.906-1.375-4.567-3.206-4.747-6.269l2.582.583c-2.5-2.561-3.23-5.2-1.7-8.48A18.559,18.559,0,0,0-2114.57,349.655Z" transform="translate(2131.251 -341.302)" fill="#323232" stroke="#323232" stroke-width="1"/></svg>