<svg xmlns="http://www.w3.org/2000/svg" width="239.415" height="786.715" viewBox="0 0 239.415 786.715">
  <g id="Group_428" data-name="Group 428" transform="translate(1726.678 -2044.055)">
    <path id="Path_331" data-name="Path 331" d="M-1491.011,2820.9a13.363,13.363,0,0,0-3.241.011c-13.507-.1-27.015-.19-40.521-.362-.9-.01-3.024.844-2.223-1.613,1.661-5.089-1.747-3.348-3.966-2.921-8.345,1.611-16.627,3.624-25.021,4.895-7.99,1.208-16.058,2.632-24.416,1.68.9-3.04,2.117-5.3,2.146-7.584.12-9.594,2-19.146.791-28.76-.313-2.5.032-3.974,2.366-5.9,4.649-3.839,4.615-10.023,3.352-15.151-.99-4.025-5.873-3.578-9.59-3.524-1.5.022-3.447.649-4.31-.773-3.777-6.219-11.42-6.319-16.3-11.085,8.519-4.5,16.574-10.09,21.672-18.881,1.365-2.354,3.5-5.33,1.636-7.889-2.26-3.107-5.047.415-8.153.638-.123-1.74,1.478-4.076-.814-5.174-2.609-1.248-3.877,1.069-5.552,2.354a79.44,79.44,0,0,0-17.318,17.521,122.729,122.729,0,0,1,4.521-43.9c4.682-15.643,9.725-31.227,12.65-47.337.833-4.588,1.864-8.178,6.156-11.277,3.426-2.475,7.014-4.966,10.289-7.734,4.547-3.845,4.789-9.133,3.855-14.451-.449-2.547-3-2.371-4.866-2.016-5.851,1.116-8.728,5.3-10.309,10.649-.463,1.567.185,2.97.639,4.441,1.212,3.935-.661,5.951-4.422,7.086-.407-6.078-.243-11.825-1.284-17.346-1.831-9.705-.673-18.409,4.951-26.8,11.232-16.764,19.883-34.464,16.776-55.631-.388-2.641.455-4.586,3.3-5.257a30.979,30.979,0,0,0,1.84,4.2c2.058,3.308,5.586,5.222,8.878,3.8,3.625-1.569,2.07-5.307.374-7.8-1.772-2.6.415-3.418,1.474-4.831,2.66-3.542,4.8-8.254,1.02-11.066s-7.653,1.026-10.573,4.036a11.035,11.035,0,0,0-1.89,3.418c-1.057,2.49-2.479,4.514-5.349,5.078-2.529-7.556-2.565-19.391-.122-24.416,1.734-3.565,3.406-6.611,6.852-1.184,1.41,2.219,3.791,3.536,6.313,4.479,5.59,2.092,6.932,1.073,7.611-4.711.614-5.212-2.544-8.869-4.967-13.113,6.452-1.208,12.131-2.894,14.87-9.019,2.087-4.668.218-8.185-4.493-7.005-8.073,2.023-13.242,1.106-15.162-7.967-.41-1.937-2.981-3.432-5.271-3.328-2.727.123-2.826,2.849-3.756,4.76-1.789,3.682-.5,7.737-1.579,11.887-5.348-2.657-10.734-4.281-16.376-1.557-3.009,1.452-4.2,3.3-.758,5.682,4.124,2.85,8.224,5.733,12.389,8.519,1.245.831,3.1,1.186,1.348,3.2-4.16,4.793-6.042,10.875-9.113,17.229a19.1,19.1,0,0,1-5.208-12.859c-.167-4.768-3.305-7.944-7.963-9.169-2.055-.539-4.256.061-4.616,2.464a12.139,12.139,0,0,0,4.594,11.577,2.907,2.907,0,0,0,1.152.6c2.833.652,3.848,3.1,5.539,5.071,7.953,9.274,6.794,20.7,7.784,31.558,1.7,18.594-7.426,33.01-19.016,46.754-12.449-34.438-20.8-69.078-13.243-106.011,4.934-24.106,8.667-48.459,13.068-72.678.444-2.453-.037-5.948,4.5-5.746,3.791.168,6.386.374,7.3,5.262.805,4.324,5.293,5.468,9.433,5.363,2.832-.073,3.472-2.361,3.324-4.717-.271-4.291-2.8-7.186-6.91-7.281-4.479-.1-8.176-3.063-12.724-2.6-2.879.292-3.017-1.935-2.606-4.038,3.583-18.389,2.344-36.983,2.429-55.525a12.546,12.546,0,0,1,11.5-12.569c5.284-.457,7.489-3.871,9.067-8.171.823-2.243.059-3.851-2.208-4.638-3.57-1.241-11.073,2.117-11.846,5.821-.942,4.522-4.059,6.668-7.491,9.248-2.1-8.525-4.475-16.474-5.939-24.589-1.89-10.475-5.628-20.664-5.038-31.57.153-2.831.5-4.744,3.529-6.02,5.084-2.138,7.777-6.856,10.411-11.4a5.355,5.355,0,0,0-.159-6.175c-1.409-1.786-3.6-1.355-5.5-.915-2.163.5-4.26,1.276-7.561,2.3,3.911-12.434,7.451-23.681,10.983-34.909,10.719,5.13,21.687,7.768,33.436,4.113,7.8-2.425,8.12-3.911,3.039-10-5.283-6.335-11.433-11.187-20.268-13.081,13.2-7.055,18.606-18.321,20.614-31.61.693-4.578-.518-6.813-6.259-5.339-8.016,2.059-14.722,6.553-22.925,11.2,2.3-7.254,1.285-12.693-1.437-18.315-2.934-6.056-.56-9.9,6.31-11.1,6.424-1.121,13.023-1.243,19.443-2.376,10.186-1.8,14-7.621,12.359-17.7a32.865,32.865,0,0,1-.508-7.794c.627-7.84,4.023-11.193,11.753-12.488a16.422,16.422,0,0,0,12.762-10.205c3.109-7.248,7.766-10.763,15.845-8.911,2.8.643,4.454-.441,2.951-3.554-.67-1.387-1.563-2.36-.324-4.058,2.711-3.713-.469-4.628-2.995-6.128-2.034-1.208-6.4.023-5.885-3.668.5-3.569,4.69-3.233,7.481-4.036,1.128-.325,2.535.229,3.794.488a2.144,2.144,0,0,0,2.651-1.284,2.707,2.707,0,0,0-.447-3.048c-.974-1.078-2.078-1.477-3.389-.357-5.607,4.783-12.295,3.761-19.144,3.855,4.664-6.335,5.353-6.979,11.085-8.8,1.4-.445,2.622-.842,2.344-2.4a4.379,4.379,0,0,0-1.771-2.561,1.866,1.866,0,0,0-2.761.86c-2.15,4.332-7.012,5.823-9.813,9.483-1.952,2.549-3.271,2.77-4.832-.757-2.676-6.043-10.135,1.2-13.414-4.289-.223-.373-1.624-.137-2.448,0a1.245,1.245,0,0,0-.786.927c.628,6.163-4.415,6.381-8.212,8.125-3.889,1.788-4.421,4.594-.282,6.465,4.909,2.218,5.231,5.236,4.036,9.993-1.875,7.469-4.747,15.28,1.758,22.261,1.669,1.793-.373,3.2-1.144,4.568-3.18,5.625-3.482,11.632-2.553,17.8,1.294,8.595-1.027,12.062-9.6,13.382-5.806.893-11.744,1-17.515,2.055-11.856,2.169-14.359,7.217-9.675,18.556,3.045,7.373,1.723,13.726-4.105,19.249-5.363-9.142-12.428-15.723-23.825-15.634-3.814.03-8.883-2.762-11.115.74-2.642,4.141-.315,9.361,2.06,13.584a68.993,68.993,0,0,0,6.459,9.043c2.127,2.665,4.532,5.108,7.3,8.193-3.593.207-6.349.3-9.092.538-11.834,1.037-21.958,5.112-28.583,15.74-1.63,2.614-2.858,5.334,1.057,5.929,10.912,1.661,21.789,5.019,33.01,1.853,3.415-.964,7.686-4.984,9.866-2.622,2.546,2.755.587,7.921-.4,11.95-.71,2.9-1.343,5.868-3.333,8.4-1.817-2.021-3.562-4.014-6.378-4.383-2.926-.382-5.442.231-5.851,3.612-.524,4.334-1.475,9.359,2.054,12.465,4.83,4.25,3.9,8.407,1.746,13.159-1.1,2.418-1.14,5.06-1.592,7.628-3.229,18.333-.383,36.249,5.173,53.5,9.366,29.089,7.728,58.36,3.744,89.67-7.048-18.235-19.927-30-32.6-41.926a76.333,76.333,0,0,1-10.026-12.074c-4.256-6.078-3.2-9.215,3.953-12.269a14.313,14.313,0,0,0,9-15.762c-.56-4.134-2.358-5.369-6.154-2.985-5.6,3.512-10.371,7.482-9.454,15.027.338,2.781-1.039,5.409-3.148,5.84-2.37.487-2.715-2.8-3.7-4.61-2.922-5.364-2.433-11.433-3.513-17.18-.641-3.412.093-5.192,4.214-5.1a25.074,25.074,0,0,0,16.436-5.525c3.749-2.972,3.822-5.763-.7-7.884-2.627-1.232-5.46-2.023-8.545-3.135,5.21-7.2,7.48-14.47,5.612-23.1-1.116-5.16-3.125-5.566-7.122-3.51-5.467,2.812-9.053,7.581-12.514,12.862-2.167-3.368-4.251-5.834-7.2-7.478-6.327-3.526-9.736-1.608-10.54,5.554-.544,4.84,1.8,9.066,2.745,14.127-6.424-1.213-11.353,1.2-15.894,4.285-4.735,3.213-4.611,6.573.326,9.307,6.8,3.764,13.675,7.821,22.321,3.784,0,4.469.044,8.176-.024,11.88-.024,1.334.548,3.862-1.9,2.922-3.59-1.377-7.709-1.276-10.806-4.131-5.072-4.677-13.879-4.657-19.045-.3-2.442,2.063-2.343,3.535.1,5.735,7.3,6.578,9.91,7.056,18.589,2.483,5.532-2.916,14.267.533,15.757,6.436,4.714,18.677,16.587,32.362,30.789,44.407,21.38,18.133,29.716,41.463,28.2,70.729-2.85-4.912-4.308-8.339-3.843-12.422a9.517,9.517,0,0,0-3.48-8.749c-1.49-1.274-2.963-2.937-5.132-2.141a4.7,4.7,0,0,0-3.195,5.212c.829,5.186-1.1,9.006-4.688,12.543-1.89,1.865-3.1,4.695-1.2,7.13,1.759,2.254,4.535,1.911,7.27,1.474,3.6-.573,5.7-3.313,8.211-5.548a28.872,28.872,0,0,1,3.394,18.2c-1,6.682-2.111,13.348-3.172,20.021-3.318,20.873-7.309,41.75.51,62.538.123.324-.173.807-.377,1.631-3.174-1.91-7.725-2-9.342-5.327-3.616-7.441-10.494-7.134-16.753-7.724-4.68-.441-6.047,2.562-4.049,6.9,2.914,6.33,7.745,8.692,15.781,6.6a10.671,10.671,0,0,1,7.436.69c5.73,2.42,9.227,6.311,11.145,12.583,5.345,17.491,11.668,34.7,14.452,52.875,1.41,9.208,1.325,8.9-7.723,8.922-4.607.013-5.59-1.818-5.291-5.78a13.831,13.831,0,0,0-4.329-11.246c-1.375-1.361-2.617-3.175-4.939-2.565-2.664.7-2.93,3.232-3.115,5.265-.326,3.6-.092,7.249-.092,11.041a25.468,25.468,0,0,0-15.117,1.821c-2.3.955-4.651,2.226-4.646,4.9.005,2.516,2.656,3.161,4.55,4.189,3.118,1.691,6.69,1.364,10.136,2.02a39.81,39.81,0,0,0-1.906,5.86c-.341,2.092-1.033,4.628.842,6.2,1.727,1.447,3.784.057,5.56-.649,4.992-1.982,9.345-4.74,11.438-10.068.372-.951.779-2.317,1.524-2.619,3.336-1.351,12.02,5.4,12.2,9.34.333,7.245-.8,14.325-2.055,21.443-2.5,14.169-8.108,27.647-9.22,42.106-.319,4.139-.531,8.288-.794,12.432-4.4-6.782-7.935-13.506-12.574-19.552-1.271-1.656-2.3-4.68-4.681-3.734-2.311.918-2.3,4.04-1.991,6.389.337,2.573,1.312,5.056,1.83,7.614a121.974,121.974,0,0,0,8.511,25.636c-3.928-.725-6.883-1.282-9.843-1.812-2.931-.526-6.589-2.154-8.087,1.564-1.391,3.455,1.988,5.389,4.374,7.241,4.019,3.121,9.378,3.17,14.88,6.106-6.584.168-11.927.948-13.795,6.983-1.174,3.793-3.112,5.414-7.063,4.807-1.963-.3-3.948-.226-4.862,2.2-1.056,2.8,1.344,14.988,3.974,15.928,5.063,1.813,4.912,5.607,4.615,9.468-.613,7.94.923,15.672,2,23.427,1.555,11.205,2.165,11.622,13.221,13.254,1.293.19,2.618.159,3.919.313a146.431,146.431,0,0,0,46.237-1.871c16.837-3.431,32.812,3.393,49.744.884,16.381-2.429,33.462-.961,50.123-3.3,1.42-.2,3.5.352,3.664-1.757C-1487.087,2821.311-1489.444,2821.324-1491.011,2820.9Zm-96.817-54.549c3.2,3.714,2.775,7.2-1.217,10.441Q-1588.437,2771.571-1587.828,2766.352Zm-6.345-143.056a9.941,9.941,0,0,1,5.641-7.313c2.167.071,1.953,1.625,1.861,2.824-.26,3.4-1.234,6.6-5,7.471C-1593.52,2626.706-1594.425,2624.859-1594.173,2623.3Zm26.983-106.534c.047,4.156-1.854,5.688-5.654,6.288C-1572.8,2518.929-1570.6,2517.673-1567.191,2516.761Zm1.33-19.416c.254,1.445.209,3.128-2.106,3.212-2.573.092-8.222-5.947-7.976-8.621.2-2.15,1.771-2.136,3.891-2.172C-1568.15,2490.324-1566.537,2493.507-1565.86,2497.345Zm11.019-23.083c-3.911,7.706-10.09,8.4-18.174,9.225C-1567.889,2476.483-1562.385,2474.649-1554.842,2474.263Zm-21.2-10c5.162,5.75,4.954,9.043-1.535,16.389C-1577.367,2474.508-1579.013,2469.25-1576.046,2464.261Zm-14.039,17.761c-1.479-1.071-3.587-1.632-4.112-4.3a5.96,5.96,0,0,1,5.324-.224c3.223,1.051,5.872,2.721,7.046,6.087.311.892.027,1.963-.923,2.038C-1585.834,2485.869-1587.866,2483.626-1590.085,2482.022Zm-13.968,16.291c-3.675-1.012-4.042-3.662-4.731-7.286C-1605.035,2492.738-1603.2,2494.471-1604.054,2498.313Zm14.737,43.937c-.281-11.3-3.393-22.669.462-33.922-.263,12.927,4.144,25.345,3.709,38.283-.366,10.859-4.505,20.085-10.38,28.994C-1594.64,2564.263-1589.029,2553.825-1589.317,2542.25ZM-1595.747,2403c2.3-.017,3.337,1.378,3.6,4.155-2.543-.324-4.484-.506-4.784-2.948C-1596.975,2403.842-1596.166,2403.006-1595.747,2403Zm3.528-87.53c.08,3.366-1.478,4.509-3.677,4.976a1.422,1.422,0,0,1-1.817-1.326C-1597.488,2316.22-1594.871,2316.542-1592.219,2315.473Zm56.268-251.523c.6,6.462,6.335,3.714,9.489,5.814.893.594.777,1.432.045,2.145-.889.864-1.661,2.3-3.2,1.351-3.694-2.263-7.308-3.6-11.365-.647a1.416,1.416,0,0,1-2.139-1.45C-1541.931,2068.029-1539.306,2066.067-1535.951,2063.949Zm-2.405-1.1c-2.585,2.016-3.9,3.994-6.3,4.647C-1544.448,2062.394-1544.448,2062.394-1538.357,2062.846Zm.016,13.1c1.317-1,2.644-1.54,4.791.332-4.465,1.686-6.875,4.921-8.68,8.784a19.685,19.685,0,0,1-2.68,4.462c-3.036,3.566-7.017,7.85-11.475,5.17-3.217-1.933-3.543-7.2-1.85-11.748a12.017,12.017,0,0,0-1.386-11.278c-.755-1.107-2.463-2.647-.567-3.774,1.62-.961,3.275-.225,4,1.944,1.057,3.159,3.365,3.875,6.216,2.449,2.034-1.019,2.972.06,3.41,1.629C-1544.983,2079.571-1541.909,2078.661-1538.341,2075.948Zm-27.889-14.295c2.125-.906,4.5-1.138,5.149-2.321,3.558-6.484,8.165-2.111,12.311-1.416,2.178.365,3.044,2.429,2.594,4.394-.581,2.531-1.771,4.874-4.606,5.79-2.538.817-2.219-1.594-2.711-2.629-1.146-2.408-2.48-3.13-5.106-2.174A7.273,7.273,0,0,1-1566.23,2061.653Zm5.225,11.955c4.177,7.5-3.321,13.858.872,20.218C-1566.226,2090.526-1564.78,2085.407-1561.005,2073.608Zm-106.668,258.469a14.336,14.336,0,0,1,7.258-6.841c.291,4.354-.6,7.5-3.594,9.72-.93.691-2.132,1.842-3.389.694A2.824,2.824,0,0,1-1667.673,2332.077Zm-42.6-1.2c-2.546,1.462-5.169,2.265-7.841.257-1.193-.9-2.349-1.843-3.363-2.64,1.5-2.69,3.567-2.411,5.439-2.707,2.619-.416,5.231-.776,6.917,1.907C-1708.241,2329.091-1709.056,2330.181-1710.27,2330.88Zm61.389,123.194c1.6-5.283,1.6-5.283,7.7-5.87C-1642.252,2452.632-1644.764,2454.4-1648.881,2454.073Zm9.4-11.181a1.641,1.641,0,0,1-1.464.62c-3.037-1.424-2.368-4.02-2.159-7.1C-1639.513,2437.92-1638.789,2440.117-1639.484,2442.893Zm-12.888,108.323c-2.951.675-5.969,1.315-8.63-.855a6.263,6.263,0,0,1-2.546-4.248c2.063-1.522,3.909-.076,5.709.184,2.48.357,5.257.67,6.422,3.513C-1651.291,2550.115-1651.946,2551.118-1652.372,2551.216Zm-6.731,81.988c6.508-3.141,11.912-4.052,17.533-.408C-1647.414,2636.347-1651.893,2636.537-1659.1,2633.2Zm12.986,14.254c.042-6.221,1.929-8.271,9.565-10.053C-1637.459,2643.624-1641.407,2645.8-1646.117,2647.458Zm9.862-17.156c-3.573-4.258-4.318-7.615-3.212-14.813C-1634.255,2620.126-1634.822,2624.859-1636.255,2630.3Zm43.345,97.158c-2.654,4.527-4.836,7.987-9.362,11.11C-1601.232,2732.575-1599.03,2729.131-1592.91,2727.46Zm-9.984-.714c-2.39,8.705-7.153,15.743-15.387,22.166C-1616.9,2737.68-1610.224,2731.983-1602.894,2726.746Zm3.984-152.377c1.325,10.091-6,16.05-8.8,23.459C-1610.377,2588.378-1605.613,2581.66-1598.91,2574.368Zm-10.878,34.815c5.009,13.857,3.951,27.91,1.49,43.834A203.764,203.764,0,0,1-1609.788,2609.183Zm-2.875-270.132c-3.686-23.424-15.436-45.684-11.926-70.482C-1623.8,2292.552-1613.263,2314.863-1612.663,2339.051Zm3.51-88.6c-2.2,4.7-4.682,8.694-9.993,11.367C-1619.9,2253.36-1618.578,2251.917-1609.153,2250.454Zm7.551-65.1c1.967.013,2.16-1.827.911-3.367-2.664-3.284-2.273-4.426,1.465-5.559,2.235-.676,8.676,2.075,4.307-5.052-.914-1.494,2.5-2.083,4.505-1.451,2.474.779,6.423,3.5,3.612-2.774-1.027-2.292,1.337-2.261,2.469-2.8,2.526-1.2,5.134-3.084,7.99-2.055,2.137.768,1.01,3.032.681,4.63-3.345,16.192-13.862,24.8-32.943,26.693C-1607.43,2189.7-1607.58,2185.316-1601.6,2185.357Zm-5.359,17.212c1.718,1.952,3.274,1.679,3.16-1.019-.127-3.02,1.065-3.848,3.789-3.739,2.606.105,4.1,1.069,4.1,3.884,0,1.524.125,3.45,2.087,3.481,2.245.037,1.689-2.031,1.842-3.468.107-1.012-.106-2.473,1.439-2.368a4.52,4.52,0,0,1,3.951,2.82c.928,1.808-.72,10.06,5.675,2.781,1.1-1.247,5.3,3.773,6.737,6.567,1.2,2.34-2.081,2.588-3.815,2.9-2.783.5-5.622.684-8.583,1.018-8.412-1.36-17.492-1.5-22.775-10.187-.854-1.4-2.812-3.009-1.226-4.54C-1608.405,2198.6-1607.984,2201.408-1606.961,2202.568Zm-27.988-27.7a51.166,51.166,0,0,1-4.276-7.25c-.851-2.019-2.854-5.041-.236-6.4,2.276-1.184,6.311-.631,7.731,1.561,1.913,2.956,3.4,2.629,5.7,1.241a3.077,3.077,0,0,1,4.124.669c1.124,1.182-.243,1.739-.761,2.59-1.992,3.266-.264,3.875,2.592,3.269,1.748-.371,3.459-.872,4.9.548,1.244,1.227,2.622,2.7,2.319,4.472-.28,1.631-2.116.88-3.295,1.024-1.124.136-2.232.3-2.5,1.6a1.715,1.715,0,0,0,1.78,2.163c9.052.125,5.038,5.72,4.083,9.87-.359,1.566-1.39,2.979-2.3,4.848C-1621.509,2187.579-1629.869,2182.862-1634.949,2174.864Zm12.136,29.9c-9.847,6.3-20.56,6.388-31.558,4.139-2.129-.435-4.264-.85-6.4-1.274,1.651-1.1.691-9.153,5.422-2.658.842,1.156,2.98-.01,2.6-1.454-1.9-7.119,3.276-7.141,7.859-8.314.121,1.1.233,1.94.3,2.787.1,1.261-.207,2.9,1.5,3.156,2.186.334,2.441-1.484,2.456-3.005.039-3.707,1.992-4.91,5.442-4.787,3.811.135-.711,5.751,3.533,5.261,2.685-.309,1.736-5.136,4.612-4.676,3.448.553,6.98,2.42,8.321,5.729C-1617.622,2202.39-1620.91,2203.551-1622.813,2204.767Zm-11.274,30.086c.564-1.324-.838-4.2,1.423-4.074,3.5.2,3.532,3.724,3.957,6.386.3,1.887.1,4.637-2.274,4.155C-1633.82,2240.744-1634,2237.578-1634.087,2234.853Zm-42.01,45.012c1.772-1.539,3.692-4.3,5.867-3.291,1.964.915,1.848,4.2,1.715,6.555a18.712,18.712,0,0,1-13.44,17.283C-1680.924,2293.239-1682.508,2285.438-1676.1,2279.865Zm-6.276,26.451c5.85-2.944,11.794-3.705,18.661-.4-5.418,5.328-11.388,5.786-17.536,5.6-1.575-.047-3.154-.483-3.374-2.314C-1684.8,2307.739-1683.518,2306.891-1682.373,2306.315Zm-9.833,1.686c-.623,3.722-5.492,3.381-8.592,4.973-3.974-1.662-7.83-3.118-11.539-4.884-2.186-1.04-2.064-2.6-.031-3.892,4.2-2.663,8.406-4.059,13.527-2.047C-1695.659,2303.4-1691.619,2304.495-1692.206,2308Zm-6.377-23.3c.073-1.466-.39-3.312,1.1-4.156,1.809-1.026,3.306.428,4.664,1.441,5.6,4.176,7.572,13.137,4.427,20.834C-1693.479,2297.2-1698.978,2292.562-1698.583,2284.7Zm19.27,69.592c8.9,9.687,17.428,19.783,28.1,30.006C-1661.533,2379.373-1675.4,2364.429-1679.313,2354.288Zm10.174,8.214c-8.573-8.813-16.165-18.294-18.988-30.665-1.348-5.9-2.327-11.853-.493-17.979,2.357,1.02,2.235,3.017,2.2,4.579-.474,19.833,10.98,33.895,23.227,47.357,8.916,9.8,19.523,18.009,26.6,29.547a147.482,147.482,0,0,1,8.61,16.83c1.823,4.056,1.249,8.521-1.508,13.525C-1636.36,2399.747-1651.679,2380.452-1669.139,2362.5Zm39.307,272.292c4.712-1.2,8.3-1.362,11.146,1.7.345.37-.194,1.562-.323,2.373Zm5.641,62.512c7.261-23.331,10.174-47.255,9.876-71.621-.127-10.373-2.567-20.414-5.806-30.093-5.67-16.945-10.041-34.231-15-51.366-4.43-15.3-1.481-30.245.564-45.291,2.934-21.575,6.55-43.032,8.912-64.721,1.7-15.562,3.629-31.142,5.05-46.751,2-22.033,2.2-43.9-4.25-65.524-5.8-19.442-10.595-39.2-6.566-59.825a129.856,129.856,0,0,1,8.61-26.6c3.7-8.553,6.229-17.2,5.751-26.586-.076-1.514-.077-3.132,2.143-4.023,2.6,6.693,1.907,12.639-.459,19.19-7.048,19.509-12.323,39.6-11.9,60.526.232,11.339,5.242,21.94,7.378,33.056,3.554,18.5,10.616,36.406,8.078,55.873s-5.782,38.762-9.478,58.037c-4.347,22.674-8.651,45.453-10.983,68.388-2.576,25.344,4.618,49.639,11.35,73.919,3,10.826,6.316,21.783,7.789,32.933,1.418,10.727.036,21.836,1.579,32.533,2.664,18.448-2.606,35.381-7.792,52.463a119.6,119.6,0,0,0-5.629,32.113c-.058,2.542.365,5.157-1.356,7.555C-1627.468,2720-1627.692,2708.554-1624.191,2697.307Zm-20.7,13.652c6.339,10.379,13.435,20.579,13.818,35.573C-1639.987,2735.091-1642.893,2723.276-1644.895,2710.959Zm-7.822,31.816c6.2.046,11.985,1.207,17.811,6.651C-1642.122,2747.733-1647.972,2746.828-1652.717,2742.775Zm7.12,15.469c5.092-.075,8.893-2.7,12.982-4.938.379-.208.955-.588,1.188-.454,7.225,4.154,16.406-.862,23.194,4.866,2.335,1.97,6.079.711,8.512,4.513-15.449,2.518-30.223,2.874-45,3.027-1.7.017-4.4,1.174-4.761-1.7C-1649.81,2760.943-1647.944,2758.278-1645.6,2758.244Zm49.07,29.171q-.579,14.028-.881,28.07c-.131,6.361-3.48,9.613-9.562,9.942-12.6.682-25.213,1.5-37.768-.822-2.613-.484-4.73-1.162-4.921-4.164-.639-9.967-3.36-19.717-2.664-29.854.239-3.485,1.11-4.472,4.5-4.333,6.09.25,12.2.071,18.3.071,9.79.017,19.611.358,29.3-1.431C-1597.961,2784.475-1596.4,2784.274-1596.526,2787.415Zm3.425,30.2c-.158.887-1.112,1.633-1.7,2.445.054-11.648.286-22.959.171-34.278-.012-1.135.279-2.3,1.567-2.478,1.356-.185,1.892.954,1.931,2.049A152.369,152.369,0,0,1-1593.1,2817.615Zm-2.951-37.844c-10.91,3.106-22.006,2.563-33.1,2.578-6.1,0-12.213.132-18.312-.059a38.664,38.664,0,0,1-8.345-1.3c-4.81-1.242-4.4-5.54-4.44-9.054-.047-4.394,3.746-2.75,5.889-2.694,18.973.5,37.835-.955,56.7-2.635,2.473-.22,6.7-2.451,7.017,2.861C-1590.378,2773.834-1590.176,2778.1-1596.052,2779.771Z" transform="translate(0 0)" fill="#f8c151"/>
    <path id="Path_332" data-name="Path 332" d="M-1669.066,2403.879c-.2,1.956-4.487,4.876.287,5.118,2.871.145,6.375-3.083,4.152-6.982-1.228-2.152-1.051-3.17-.471-5.419,1.124-4.352.084-9.128,2.892-13.325.642-.96-.508-3.342-1.194-4.911-.71-1.62-3.065-1.153-2.9-.251.854,4.6-4.913,9.02-3.71,10.5C-1665.6,2394.061-1674.956,2399.455-1669.066,2403.879Z" transform="translate(17.324 103.827)" fill="#f8c458"/>
    <path id="Path_333" data-name="Path 333" d="M-1633.107,2541.127c-.04,1.743-1.051,3.728,1.225,4.318,1.849.479,2.333-1.439,2.807-2.917,2.095-6.557,4.271-13.087,6.293-19.666a6.206,6.206,0,0,0-.359-5.087c-.691-1.153-2.916-2.028-2.782-.633.453,4.752-4.075,7.291-3.931,11.582C-1631.2,2532.812-1633,2536.731-1633.107,2541.127Z" transform="translate(29.074 147.179)" fill="#f8c55c"/>
    <path id="Path_334" data-name="Path 334" d="M-1631.643,2110.223c6.427-1.864,13.244-.093,19.675-2.263,1.8.07,4.6,1.376,5.013-1.113.459-2.787-2.622-2.072-4.287-2.721-6.8-2.651-13.462,1.25-20.28.442-1.64-.194-3.331,2.144-3.05,4.358C-1634.378,2110.449-1633.275,2110.7-1631.643,2110.223Z" transform="translate(28.689 18.424)" fill="#f8c459"/>
    <path id="Path_335" data-name="Path 335" d="M-1629.4,2302.815c-.45.336,1.431,1.95,2.838,1.215,2.617-1.368,2.946-3.71,3.267-6.522a47.847,47.847,0,0,0-.593-15.532c.552-2.016.481-4.295-1.776-4.834-2.9-.694-1.536,2.233-2.314,3.287-2.2,2.981-2.4,5.377.445,7.917.788.7,1.617,1.879.426,2.753C-1631.434,2294.27-1624.971,2299.513-1629.4,2302.815Z" transform="translate(30.231 72.591)" fill="#f8c356"/>
    <path id="Path_336" data-name="Path 336" d="M-1635.5,2628.146c-8.85,1.2-18.022,5.107-25.894-2.818-.834-.841-1.794-1.3-2.764-.146-1.085,1.29-.5,2.5.391,3.508,4.133,4.7,9.732,5.378,15.312,5.6,5-.285,9.805-.609,14.342-2.3,1.685-.628,4.435-1.483,3.544-3.812C-1631.686,2625.265-1633.787,2627.913-1635.5,2628.146Z" transform="translate(19.296 180.85)" fill="#f8c55c"/>
    <path id="Path_337" data-name="Path 337" d="M-1642.9,2623.247c2.071.031,2.995-1.457,3.3-3.306-.013-1.514-.455-2.781-2.115-2.773a3.745,3.745,0,0,0-3.742,3.092C-1645.886,2622.11-1644.62,2623.219-1642.9,2623.247Z" transform="translate(25.28 178.568)" fill="#f9c967"/>
    <path id="Path_338" data-name="Path 338" d="M-1658.786,2622.072a2.435,2.435,0,0,0,2.587-2.262,2.194,2.194,0,0,0-2.167-2.574,2.7,2.7,0,0,0-2.541,2.392C-1661.075,2621.136-1660.388,2622.075-1658.786,2622.072Z" transform="translate(20.485 178.589)" fill="#f9c762"/>
  </g>
</svg>
