<svg xmlns="http://www.w3.org/2000/svg" width="298.442" height="199" viewBox="0 0 298.442 199"><g transform="translate(6679.547 -5468.337) rotate(90)"><g transform="translate(5468.337 6381.105)"><path d="M5479.862,6386.867a5.763,5.763,0,1,1-5.763-5.762A5.761,5.761,0,0,1,5479.862,6386.867Z" transform="translate(-5468.337 -6381.105)" fill="#dbdbdb"/><g transform="translate(46.871)"><path d="M5486.219,6392.6a5.763,5.763,0,1,1,5.134-6.33A5.765,5.765,0,0,1,5486.219,6392.6Z" transform="translate(-5479.86 -6381.105)" fill="#dbdbdb"/></g><g transform="translate(93.739)"><path d="M5497.745,6392.6a5.763,5.763,0,1,1,5.132-6.33A5.765,5.765,0,0,1,5497.745,6392.6Z" transform="translate(-5491.385 -6381.105)" fill="#dbdbdb"/></g><g transform="translate(187.476)"><path d="M5520.793,6392.6a5.763,5.763,0,1,1,5.131-6.33A5.766,5.766,0,0,1,5520.793,6392.6Z" transform="translate(-5514.432 -6381.105)" fill="#dbdbdb"/></g><g transform="translate(140.608)"><path d="M5509.27,6392.6a5.763,5.763,0,1,1,5.131-6.33A5.765,5.765,0,0,1,5509.27,6392.6Z" transform="translate(-5502.909 -6381.105)" fill="#dbdbdb"/></g><g transform="translate(0 40.931)"><path d="M5479.862,6396.929a5.763,5.763,0,1,1-5.763-5.762A5.762,5.762,0,0,1,5479.862,6396.929Z" transform="translate(-5468.337 -6391.167)" fill="#dbdbdb"/></g><g transform="translate(46.871 40.927)"><path d="M5486.219,6402.661a5.763,5.763,0,1,1,5.134-6.327A5.762,5.762,0,0,1,5486.219,6402.661Z" transform="translate(-5479.86 -6391.167)" fill="#dbdbdb"/></g><g transform="translate(93.739 40.927)"><path d="M5497.745,6402.661a5.763,5.763,0,1,1,5.132-6.327A5.763,5.763,0,0,1,5497.745,6402.661Z" transform="translate(-5491.385 -6391.167)" fill="#dbdbdb"/></g><g transform="translate(187.476 40.927)"><path d="M5520.793,6402.661a5.763,5.763,0,1,1,5.131-6.327A5.764,5.764,0,0,1,5520.793,6402.661Z" transform="translate(-5514.432 -6391.167)" fill="#dbdbdb"/></g><g transform="translate(140.608 40.927)"><path d="M5509.27,6402.661a5.763,5.763,0,1,1,5.131-6.327A5.762,5.762,0,0,1,5509.27,6402.661Z" transform="translate(-5502.909 -6391.167)" fill="#dbdbdb"/></g></g><g transform="translate(5468.337 6465.605)"><path d="M5479.862,6407.643a5.763,5.763,0,1,1-5.763-5.762A5.763,5.763,0,0,1,5479.862,6407.643Z" transform="translate(-5468.337 -6401.881)" fill="#dbdbdb"/><g transform="translate(46.871 0.002)"><path d="M5486.219,6413.375a5.763,5.763,0,1,1,5.134-6.33A5.762,5.762,0,0,1,5486.219,6413.375Z" transform="translate(-5479.86 -6401.88)" fill="#dbdbdb"/></g><g transform="translate(93.739 0.002)"><path d="M5497.745,6413.375a5.763,5.763,0,1,1,5.132-6.33A5.763,5.763,0,0,1,5497.745,6413.375Z" transform="translate(-5491.385 -6401.88)" fill="#dbdbdb"/></g><g transform="translate(187.476 0.002)"><path d="M5520.793,6413.375a5.763,5.763,0,1,1,5.131-6.33A5.764,5.764,0,0,1,5520.793,6413.375Z" transform="translate(-5514.432 -6401.88)" fill="#dbdbdb"/></g><g transform="translate(140.608 0.002)"><path d="M5509.27,6413.375a5.763,5.763,0,1,1,5.131-6.33A5.762,5.762,0,0,1,5509.27,6413.375Z" transform="translate(-5502.909 -6401.88)" fill="#dbdbdb"/></g><g transform="translate(0 40.931)"><path d="M5479.862,6417.707a5.763,5.763,0,1,1-5.763-5.761A5.761,5.761,0,0,1,5479.862,6417.707Z" transform="translate(-5468.337 -6411.946)" fill="#dbdbdb"/></g><g transform="translate(46.871 40.933)"><path d="M5486.219,6423.438a5.762,5.762,0,1,1,5.134-6.33A5.762,5.762,0,0,1,5486.219,6423.438Z" transform="translate(-5479.86 -6411.945)" fill="#dbdbdb"/></g><g transform="translate(93.739 40.933)"><path d="M5497.745,6423.438a5.762,5.762,0,1,1,5.132-6.33A5.763,5.763,0,0,1,5497.745,6423.438Z" transform="translate(-5491.385 -6411.945)" fill="#dbdbdb"/></g><g transform="translate(187.476 40.933)"><path d="M5520.793,6423.438a5.762,5.762,0,1,1,5.131-6.33A5.764,5.764,0,0,1,5520.793,6423.438Z" transform="translate(-5514.432 -6411.945)" fill="#dbdbdb"/></g><g transform="translate(140.608 40.933)"><path d="M5509.27,6423.438a5.762,5.762,0,1,1,5.131-6.33A5.762,5.762,0,0,1,5509.27,6423.438Z" transform="translate(-5502.909 -6411.945)" fill="#dbdbdb"/></g></g><g transform="translate(5468.337 6542.592)"><path d="M5479.862,6426.574a5.763,5.763,0,1,1-5.763-5.765A5.766,5.766,0,0,1,5479.862,6426.574Z" transform="translate(-5468.337 -6420.809)" fill="#dbdbdb"/><g transform="translate(46.871)"><path d="M5486.219,6432.3a5.762,5.762,0,1,1,5.134-6.327A5.762,5.762,0,0,1,5486.219,6432.3Z" transform="translate(-5479.86 -6420.81)" fill="#dbdbdb"/></g><g transform="translate(93.739)"><path d="M5497.745,6432.3a5.762,5.762,0,1,1,5.132-6.327A5.763,5.763,0,0,1,5497.745,6432.3Z" transform="translate(-5491.385 -6420.81)" fill="#dbdbdb"/></g><g transform="translate(187.476)"><path d="M5520.793,6432.3a5.762,5.762,0,1,1,5.131-6.327A5.764,5.764,0,0,1,5520.793,6432.3Z" transform="translate(-5514.432 -6420.81)" fill="#dbdbdb"/></g><g transform="translate(140.608)"><path d="M5509.27,6432.3a5.762,5.762,0,1,1,5.131-6.327A5.762,5.762,0,0,1,5509.27,6432.3Z" transform="translate(-5502.909 -6420.81)" fill="#dbdbdb"/></g><g transform="translate(0 40.931)"><path d="M5479.862,6436.632a5.763,5.763,0,1,1-5.763-5.759A5.763,5.763,0,0,1,5479.862,6436.632Z" transform="translate(-5468.337 -6430.873)" fill="#dbdbdb"/></g><g transform="translate(46.871 40.927)"><path d="M5486.219,6442.367a5.763,5.763,0,1,1,5.134-6.324A5.756,5.756,0,0,1,5486.219,6442.367Z" transform="translate(-5479.86 -6430.873)" fill="#dbdbdb"/></g><g transform="translate(93.739 40.927)"><path d="M5497.745,6442.367a5.763,5.763,0,1,1,5.132-6.324A5.756,5.756,0,0,1,5497.745,6442.367Z" transform="translate(-5491.385 -6430.873)" fill="#dbdbdb"/></g><g transform="translate(187.476 40.927)"><path d="M5520.793,6442.367a5.763,5.763,0,1,1,5.131-6.324A5.757,5.757,0,0,1,5520.793,6442.367Z" transform="translate(-5514.432 -6430.873)" fill="#dbdbdb"/></g><g transform="translate(140.608 40.927)"><path d="M5509.27,6442.367a5.763,5.763,0,1,1,5.131-6.324A5.756,5.756,0,0,1,5509.27,6442.367Z" transform="translate(-5502.909 -6430.873)" fill="#dbdbdb"/></g></g><g transform="translate(5468.337 6627.095)"><g transform="translate(0 0.002)"><path d="M5479.862,6447.346a5.763,5.763,0,1,1-5.763-5.758A5.763,5.763,0,0,1,5479.862,6447.346Z" transform="translate(-5468.337 -6441.588)" fill="#dbdbdb"/></g><g transform="translate(46.871)"><path d="M5486.219,6453.081a5.762,5.762,0,1,1,5.134-6.33A5.762,5.762,0,0,1,5486.219,6453.081Z" transform="translate(-5479.86 -6441.587)" fill="#dbdbdb"/></g><g transform="translate(93.739)"><path d="M5497.745,6453.081a5.762,5.762,0,1,1,5.132-6.33A5.763,5.763,0,0,1,5497.745,6453.081Z" transform="translate(-5491.385 -6441.587)" fill="#dbdbdb"/></g><g transform="translate(187.476)"><path d="M5520.793,6453.081a5.762,5.762,0,1,1,5.131-6.33A5.764,5.764,0,0,1,5520.793,6453.081Z" transform="translate(-5514.432 -6441.587)" fill="#dbdbdb"/></g><g transform="translate(140.608)"><path d="M5509.27,6453.081a5.762,5.762,0,1,1,5.131-6.33A5.762,5.762,0,0,1,5509.27,6453.081Z" transform="translate(-5502.909 -6441.587)" fill="#dbdbdb"/></g><g transform="translate(0 40.929)"><path d="M5479.862,6457.415a5.763,5.763,0,1,1-5.763-5.765A5.761,5.761,0,0,1,5479.862,6457.415Z" transform="translate(-5468.337 -6451.65)" fill="#dbdbdb"/></g><g transform="translate(46.871 40.931)"><path d="M5486.219,6463.142a5.761,5.761,0,1,1,5.134-6.327A5.757,5.757,0,0,1,5486.219,6463.142Z" transform="translate(-5479.86 -6451.651)" fill="#dbdbdb"/></g><g transform="translate(93.739 40.931)"><path d="M5497.745,6463.142a5.761,5.761,0,1,1,5.132-6.327A5.758,5.758,0,0,1,5497.745,6463.142Z" transform="translate(-5491.385 -6451.651)" fill="#dbdbdb"/></g><g transform="translate(187.476 40.931)"><path d="M5520.793,6463.142a5.761,5.761,0,1,1,5.131-6.327A5.759,5.759,0,0,1,5520.793,6463.142Z" transform="translate(-5514.432 -6451.651)" fill="#dbdbdb"/></g><g transform="translate(140.608 40.931)"><path d="M5509.27,6463.142a5.761,5.761,0,1,1,5.131-6.327A5.757,5.757,0,0,1,5509.27,6463.142Z" transform="translate(-5502.909 -6451.651)" fill="#dbdbdb"/></g></g></g></svg>