<svg id="reading-book" xmlns="http://www.w3.org/2000/svg" width="46.373" height="38.041" viewBox="0 0 46.373 38.041">
  <path id="Path_304" data-name="Path 304" d="M1.359,84.041H45.015a1.359,1.359,0,0,0,1.359-1.359V50.076a1.359,1.359,0,0,0-1.359-1.359C38.453,48.717,35.764,46,31.338,46c-3.089,0-6.066,2.4-8.152,4.689C21.1,48.407,18.128,46,15.035,46c-4.424,0-7.116,2.717-13.677,2.717A1.359,1.359,0,0,0,0,50.076V82.682A1.359,1.359,0,0,0,1.359,84.041Zm1.359-2.754c6.03-.323,8.89-2.681,12.318-2.681,1.722,0,3.633,1.36,5.08,2.717H2.717Zm23.536.036c1.445-1.357,3.356-2.717,5.085-2.717,3.447,0,6.259,2.356,12.318,2.681v.036Zm5.085-32.606c3.449,0,6.256,2.356,12.318,2.681V78.566c-5.6-.337-8.213-2.677-12.318-2.677-2.532,0-4.925,1.6-6.793,3.32V53.261C25.789,51.729,28.765,48.717,31.338,48.717Zm-16.3,0c2.563,0,5.546,3.014,6.793,4.545V79.209c-1.868-1.725-4.261-3.32-6.793-3.32-4.108,0-6.717,2.34-12.318,2.677V51.4C8.747,51.074,11.607,48.717,15.035,48.717Z" transform="translate(0 -46)" fill="#fff"/>
  <path id="Path_305" data-name="Path 305" d="M302.359,168.717h10.869a1.359,1.359,0,1,0,0-2.717H302.359a1.359,1.359,0,1,0,0,2.717Z" transform="translate(-273.737 -155.131)" fill="#fff"/>
  <path id="Path_306" data-name="Path 306" d="M302.359,228.717h10.869a1.359,1.359,0,1,0,0-2.717H302.359a1.359,1.359,0,1,0,0,2.717Z" transform="translate(-273.737 -209.697)" fill="#fff"/>
  <path id="Path_307" data-name="Path 307" d="M302.359,288.717h10.869a1.359,1.359,0,1,0,0-2.717H302.359a1.359,1.359,0,1,0,0,2.717Z" transform="translate(-273.737 -264.262)" fill="#fff"/>
  <path id="Path_308" data-name="Path 308" d="M62.359,168.717H73.227a1.359,1.359,0,0,0,0-2.717H62.359a1.359,1.359,0,0,0,0,2.717Z" transform="translate(-55.475 -155.131)" fill="#fff"/>
  <path id="Path_309" data-name="Path 309" d="M62.359,228.717H73.227a1.359,1.359,0,1,0,0-2.717H62.359a1.359,1.359,0,0,0,0,2.717Z" transform="translate(-55.475 -209.697)" fill="#fff"/>
  <path id="Path_310" data-name="Path 310" d="M73.227,286H62.359a1.359,1.359,0,0,0,0,2.717H73.227a1.359,1.359,0,1,0,0-2.717Z" transform="translate(-55.475 -264.262)" fill="#fff"/>
</svg>
