<svg xmlns="http://www.w3.org/2000/svg" width="242.937" height="243.431" viewBox="0 0 242.937 243.431"><path d="M61.527,212.576,66,211.325a8.1,8.1,0,0,0,5.617-9.974L20.445,18.215A10.118,10.118,0,0,0,7.977,11.193l-.578.161A10.119,10.119,0,0,0,.376,23.823L51.552,206.959A8.094,8.094,0,0,0,61.527,212.576Z" transform="translate(0 30.555)" fill="#1695b4"/><path d="M221.092,116.1a193.9,193.9,0,0,1-44.6-30.684,3.985,3.985,0,0,1-1.132-4.066A573.664,573.664,0,0,0,190.072,5.143c.5-4.276-1.8-5.533-4.234-2.6C138.135,59.6,55.6-7.893,6.47,43.96a16.73,16.73,0,0,1,1.383,3.479l33.2,118.88c49.212-51.224,131.456,15.845,179.075-41.08C222.559,122.3,223.02,116.939,221.092,116.1Z" transform="translate(20.65 -0.95)" fill="#1695b4"/></svg>
