<svg xmlns="http://www.w3.org/2000/svg" width="66.487" height="75.318" viewBox="0 0 66.487 75.318">
  <g id="ancient-symbol" transform="translate(-4.865 -0.995)">
    <path id="Path_424" data-name="Path 424" d="M56.448,47.354A13.876,13.876,0,0,1,58.5,58.787c-1.05,3.925-2.921,5.819-8.5,11.456-1.4,1.415-3.058,3.081-5.009,5.1a3.116,3.116,0,0,1-2.225.97,3.247,3.247,0,0,1-2.75-1.609,3.018,3.018,0,0,1,.011-3.069.253.253,0,0,1,.034-.057l.08-.137.011-.011c.422-.764,1.848-3.309,6.709-11.947.73-1.358.867-2.465.411-3.241-1.657-2.761-9.177-2.068-10.52-2.3-.011.011-.011,0-.011,0-.972.121-8.988-.177-10.6,2.351-.148.228-.593.924.08,2.522l.388.65c6.047,10.726,6.858,12.175,6.858,12.175a3.059,3.059,0,0,1-.844,4.039,3.091,3.091,0,0,1-4.13-.331l-8.466-8.774a1.027,1.027,0,0,1-.1-.114l-.217-.217c-4.21-4.039-5.865-8.546-4.941-13.384a14.182,14.182,0,0,1,2.282-5.5c3.218-4.735,7.976-6.983,13.167-8.66a40.783,40.783,0,0,1-5.226-2.1c-8.147-4.176-11.878-10.931-10-18.074,1.016-3.8,2.351-5.169,8.786-11.73,1.335-1.346,2.887-2.932,4.712-4.827a3.076,3.076,0,0,1,4.131-.319,3.059,3.059,0,0,1,.844,4.028l-.057.091a.193.193,0,0,0-.023.057c-.331.593-1.826,3.241-6.766,12-.057.114-.137.251-.217.388a2.055,2.055,0,0,0-.285.571c-.536,1.449-.125,2.065,0,2.259,2.065,3.1,17.514,2.939,20.447.753,1.883-1.46,1.4-2.579-2.8-9.676-1.084-1.837-2.316-3.914-3.743-6.447A3.018,3.018,0,0,1,40.017,2.6a3.269,3.269,0,0,1,2.761-1.6,3.1,3.1,0,0,1,2.214.958c2.134,2.214,3.9,4.016,5.374,5.5,5.6,5.705,7.109,7.234,8.135,11.057a13.576,13.576,0,0,1,.228,5.933,14.359,14.359,0,0,1-2.282,5.5,20.292,20.292,0,0,1-7.919,6.629,37.3,37.3,0,0,1-5.306,2.1C48.46,40.371,53.219,42.619,56.448,47.354Z" transform="translate(1.361 0)" fill="#323232"/>
    <path id="Path_425" data-name="Path 425" d="M25.346,34.839c.023,0,.034.011.046.011-.719.342-1.426.73-2.122,1.141H18.455a6.846,6.846,0,1,1,0-2.282h4.884C23.977,34.1,24.65,34.474,25.346,34.839Zm46.006.012a6.842,6.842,0,0,1-13.59,1.141H52.913c-.7-.422-1.392-.787-2.1-1.13a1.059,1.059,0,0,0,.114-.057c.7-.354,1.358-.719,1.974-1.1h4.861a6.842,6.842,0,0,1,13.59,1.141Z" transform="translate(0 3.809)" fill="#323232"/>
  </g>
</svg>
