<svg xmlns="http://www.w3.org/2000/svg" width="114" height="114" viewBox="0 0 114 114"><g transform="translate(-691 -438)"><circle cx="57" cy="57" r="57" transform="translate(691 438)" fill="#a9a9a9" opacity="0.16"/><g transform="translate(724.209 469.347)"><path d="M58.4,109.436a.812.812,0,1,1,.046,0H58.4Zm-3.225-.121a.833.833,0,0,1-.095-.005h0a.8.8,0,0,1,.165-1.6l.025,0a.8.8,0,0,1-.092,1.6Zm6.443-.247a.8.8,0,0,1-.154-1.589l.015,0a.8.8,0,0,1,.3,1.576H61.77A.823.823,0,0,1,61.614,109.068Zm-9.626-.364a.815.815,0,0,1-.212-.028h0a.8.8,0,0,1,.41-1.551l.017,0a.8.8,0,0,1-.211,1.576Zm12.752-.493a.8.8,0,0,1-.275-1.556l.013,0a.8.8,0,1,1,.542,1.51l-.007,0A.8.8,0,0,1,64.74,108.211Zm-15.807-.6a.791.791,0,0,1-.327-.071l-.011,0a.8.8,0,1,1,.338.076Zm18.761-.725a.811.811,0,1,1,.395-.1l-.018.01A.8.8,0,0,1,67.694,106.885Zm7.285-7.17.005,0-.085-.06Zm-37.026-3.5a.8.8,0,0,1-.744-.5l0-.006A.8.8,0,1,1,38.69,95.1l.006.014a.8.8,0,0,1-.742,1.1ZM77.767,94.68a.808.808,0,1,1,.771-.58l-.01.032A.8.8,0,0,1,77.767,94.68Zm-40.8-1.549a.8.8,0,0,1-.78-.616l0-.011a.8.8,0,1,1,1.56-.373l0,.011a.8.8,0,0,1-.781.989ZM78.5,91.525a.79.79,0,0,1-.14-.013.807.807,0,1,1,.935-.684l-.005.033A.8.8,0,0,1,78.5,91.525Zm-42.028-1.6a.8.8,0,0,1-.8-.731l0-.033a.8.8,0,1,1,.87.762C36.523,89.927,36.5,89.928,36.477,89.928Zm42.274-1.633a.8.8,0,0,1-.8-.8v-.059a.8.8,0,1,1,1.6,0v.011c0,.006,0,.011,0,.017s0,.014,0,.021v.011A.8.8,0,0,1,78.751,88.294Zm-42.276-1.6c-.023,0-.047,0-.07,0a.807.807,0,1,1,.871-.763l0,.033A.8.8,0,0,1,36.475,86.689ZM78.5,85.016a.8.8,0,0,1-.789-.663L77.7,84.32a.8.8,0,1,1,.935.684A.789.789,0,0,1,78.5,85.016Zm.135-.833-.135.02Zm-41.672-.7a.808.808,0,1,1,.787-.649l-.007.033a.8.8,0,0,1-.779.616Zm40.8-1.62A.809.809,0,0,1,77,81.313l-.009-.028a.8.8,0,1,1,1.533-.472h0a.8.8,0,0,1-.509,1.01A.782.782,0,0,1,77.763,81.866ZM37.934,80.394a.8.8,0,0,1-.743-1.1l0-.01a.8.8,0,1,1,1.486.6l0,.01A.8.8,0,0,1,37.934,80.394Zm38.612-1.532a.807.807,0,0,1-.717-.437l-.012-.024a.8.8,0,0,1,1.44-.708v0a.8.8,0,0,1-.711,1.167ZM39.37,77.488a.809.809,0,1,1,.7-.416l-.019.032a.8.8,0,0,1-.685.384Zm35.511-1.409a.807.807,0,1,1,.646-1.277l.017.024a.8.8,0,0,1-.663,1.253ZM41.234,74.836a.8.8,0,0,1-.617-1.315l.007-.008a.8.8,0,1,1,1.234,1.025l-.007.008A.8.8,0,0,1,41.234,74.836Zm31.58-1.253a.8.8,0,1,1,.565-1.371l.013.013a.8.8,0,0,1-.579,1.358ZM43.479,72.5a.8.8,0,0,1-.532-1.4l0,0a.8.8,0,0,1,1.073,1.193l-.013.012a.8.8,0,0,1-.531.2ZM70.392,71.43a.8.8,0,0,1-.473-.155l-.027-.021a.8.8,0,1,1,.5.176Zm.072-.912-.08.1Zm-24.413.011a.81.81,0,1,1,.459-.144l-.028.019a.8.8,0,0,1-.431.126Zm21.618-.86a.8.8,0,0,1-.375-.094l-.019-.011a.8.8,0,0,1,.773-1.405h0a.8.8,0,0,1-.382,1.508Zm-18.776-.694a.8.8,0,0,1-.332-1.533l.019-.008a.8.8,0,1,1,.313,1.541Zm0,0" transform="translate(-31.968 -60.374)" fill="#a7c7d3"/><path d="M194.125,180.793l-12.076-12.076a1.934,1.934,0,1,1,2.735-2.734l-3.11-3.11a1.932,1.932,0,0,1,2.551-2.894l-1.183-1.183a1.933,1.933,0,0,1-.568-1.37,1.813,1.813,0,0,1,.026-.314,1.934,1.934,0,0,1,3.277-1.051l1.355,1.355a1.934,1.934,0,0,1-.543-1.677,1.913,1.913,0,0,1,.541-1.06,1.936,1.936,0,0,1,2.737,0l7.848,7.848.022-.031a3.536,3.536,0,0,1,5.006,0l3.659,3.659a3.754,3.754,0,0,1,1.1,2.65l0,2.289a4.041,4.041,0,0,0,1.184,2.854l.816.816L200.17,184.1l-1.043-1.043a4.043,4.043,0,0,0-2.594-1.175,3.752,3.752,0,0,1-2.408-1.092Zm0,0" transform="translate(-162.305 -138.114)" fill="#fecbaa"/><path d="M356.644,355.131l10.594-10.594a.894.894,0,0,1,1.264,0l3.773,3.773a.894.894,0,0,1,0,1.264l-10.594,10.594a.894.894,0,0,1-1.264,0l-3.773-3.773a.894.894,0,0,1,0-1.264Zm0,0" transform="translate(-319.386 -308.536)" fill="#fdd559"/><path d="M461.643,380.8a.8.8,0,1,0,0-1.133A.8.8,0,0,0,461.643,380.8Zm0,0" transform="translate(-413.508 -340.043)" fill="#ff8812"/><path d="M343.8,230.285l-2.7-2.7.022-.031a3.518,3.518,0,0,1,1.367-.849l2.448,2.448a.8.8,0,0,1-1.134,1.134Zm0,0" transform="translate(-305.684 -203.169)" fill="#ffae85"/><path d="M72.721,180.8,84.8,168.725a1.934,1.934,0,1,0-2.735-2.735l3.11-3.109a1.932,1.932,0,0,0-2.551-2.894l1.183-1.184a1.932,1.932,0,0,0,.568-1.369,1.814,1.814,0,0,0-.026-.315,1.934,1.934,0,0,0-3.277-1.051l-1.355,1.355a1.934,1.934,0,1,0-2.735-2.735l-7.848,7.848-.022-.031a3.537,3.537,0,0,0-5.006,0l-3.659,3.66a3.754,3.754,0,0,0-1.1,2.65l0,2.289a4.039,4.039,0,0,1-1.184,2.854l-.816.816,9.334,9.334,1.043-1.043a4.043,4.043,0,0,1,2.594-1.175,3.752,3.752,0,0,0,2.408-1.092Zm0,0" transform="translate(-51.389 -138.121)" fill="#fecbaa"/><path d="M15.894,355.141,5.3,344.547a.894.894,0,0,0-1.264,0L.263,348.32a.894.894,0,0,0,0,1.264l10.594,10.594a.894.894,0,0,0,1.264,0l3.773-3.773a.894.894,0,0,0,0-1.264Zm0,0" transform="translate(0 -308.545)" fill="#ff84a7"/><path d="M106.46,450.738a.8.8,0,1,0-1.133,0A.8.8,0,0,0,106.46,450.738Zm0,0" transform="translate(-94.182 -402.721)" fill="#ef6085"/><path d="M133.057,230.3l2.7-2.7-.022-.031a3.518,3.518,0,0,0-1.367-.849l-2.448,2.448a.8.8,0,0,0,1.135,1.135Zm0,0" transform="translate(-118.016 -203.18)" fill="#ffae85"/><path d="M166.14,75.232V92.311a1.934,1.934,0,1,1-3.867,0v4.4a1.93,1.93,0,0,1-.566,1.369,1.931,1.931,0,0,1-2.488.21,1.933,1.933,0,0,1-.8-1.336v1.674a1.933,1.933,0,0,1-.567,1.37,1.828,1.828,0,0,1-.24.2,1.934,1.934,0,0,1-3.061-1.574V96.709a1.934,1.934,0,1,1-3.867,0V85.61l-.037.006a3.536,3.536,0,0,1-3.537-3.542V76.9a3.756,3.756,0,0,1,1.1-2.651l1.617-1.62a4.04,4.04,0,0,0,1.181-2.856V68.618h13.2v1.475a4.044,4.044,0,0,0,1,2.665,3.753,3.753,0,0,1,.931,2.475Zm0,0" transform="translate(-131.84 -61.494)" fill="#fedfc5"/><path d="M158.736,165.987a1.936,1.936,0,0,0-2.737,0l3.11-3.11a1.932,1.932,0,0,0-2.551-2.894l1.184-1.184a1.933,1.933,0,0,0,.568-1.369,1.822,1.822,0,0,0-.026-.315,1.935,1.935,0,0,0-3.278-1.051l-1.355,1.355a1.934,1.934,0,1,0-2.735-2.735l-7.848,7.848-.022-.031a3.517,3.517,0,0,0-1.367-.849,3.554,3.554,0,0,0-1.836-.114,5.18,5.18,0,0,0,2.725,2.061v9.732a3.541,3.541,0,0,0,4.229,3.474,3.549,3.549,0,0,0,2.051,1.8l9.885-9.885a1.934,1.934,0,0,0,0-2.737Zm0,0" transform="translate(-125.326 -138.121)" fill="#ffae85"/><path d="M198.2,168.93V162.1a3.588,3.588,0,0,0-.472.4l-.022.031-7.848-7.848a1.936,1.936,0,0,0-2.737,0,1.913,1.913,0,0,0-.541,1.06,1.934,1.934,0,0,0,.543,1.677l-1.355-1.355a1.933,1.933,0,0,0-3.278,1.051,1.854,1.854,0,0,0-.026.314,1.933,1.933,0,0,0,.568,1.37l1.183,1.183a1.931,1.931,0,0,0-3.094,1.217,1.9,1.9,0,0,0-.025.309,1.928,1.928,0,0,0,.568,1.368l3.11,3.11a1.934,1.934,0,1,0-2.735,2.735l8.09,8.09a3.552,3.552,0,0,0,.665.062,3.507,3.507,0,0,0,2.07-.67,3.577,3.577,0,0,0,.432-.368,3.516,3.516,0,0,0,1.036-2.5v-.872c.109.01.219.015.329.015a3.543,3.543,0,0,0,3.538-3.541Zm0,0" transform="translate(-162.297 -138.113)" fill="#ffae85"/><path d="M166.14,75.232V92.311a1.934,1.934,0,0,1-1.933,1.937c-.029,0-.06,0-.091,0a1.913,1.913,0,0,1-1.038-.364h0a1.933,1.933,0,0,1-.8-1.57v4.4a1.93,1.93,0,0,1-.566,1.369,1.931,1.931,0,0,1-2.488.21,1.933,1.933,0,0,1-.8-1.336v1.674a1.933,1.933,0,0,1-.567,1.37,1.828,1.828,0,0,1-.24.2,1.934,1.934,0,0,1-3.061-1.574V96.709a1.934,1.934,0,1,1-3.867,0V85.61l-.037.006a3.536,3.536,0,0,1-3.537-3.542V76.9a3.756,3.756,0,0,1,1.1-2.651l1.617-1.62a4.052,4.052,0,0,0,1.181-2.856V68.618h13.2v1.475a3.664,3.664,0,0,0,.127,1,4.021,4.021,0,0,0,.876,1.667,3.782,3.782,0,0,1,.931,2.475Zm0,0" transform="translate(-131.84 -61.494)" fill="#fedfc5"/><path d="M198.2,75.233V92.311a1.934,1.934,0,0,1-1.933,1.937c-.029,0-.06,0-.091,0a1.914,1.914,0,0,1-1.039-.364l.033-16.457a2.517,2.517,0,0,0-.064-.457,7.439,7.439,0,0,0-7.441-6h-4.778a4.025,4.025,0,0,0,.181-1.193V68.618h13.2v1.475a3.664,3.664,0,0,0,.127,1,4.022,4.022,0,0,0,.876,1.667,3.782,3.782,0,0,1,.931,2.475Zm0,0" transform="translate(-163.897 -61.495)" fill="#fecbaa"/><path d="M182.978,7.124H168a.894.894,0,0,1-.894-.894V.894A.894.894,0,0,1,168,0h14.983a.894.894,0,0,1,.894.894V6.23A.894.894,0,0,1,182.978,7.124Zm0,0" transform="translate(-149.754)" fill="#83d9ff"/><path d="M194.063,27.388a.8.8,0,1,0-.8.8A.8.8,0,0,0,194.063,27.388Zm0,0" transform="translate(-172.481 -23.826)" fill="#5186ff"/><g transform="translate(17.243 19.491)"><path d="M287.027,203.834v10.508a1.932,1.932,0,0,1-.8-1.57v4.4a1.929,1.929,0,0,1-.566,1.369,1.877,1.877,0,0,1-.236.2V203.834a.8.8,0,0,1,1.6,0Zm0,0" transform="translate(-273.035 -201.447)" fill="#fecbaa"/><path d="M249.889,203.833v14.914a1.933,1.933,0,0,1-.8-1.336v1.674a1.932,1.932,0,0,1-.567,1.37,1.836,1.836,0,0,1-.24.2V203.833a.8.8,0,1,1,1.6,0Zm0,0" transform="translate(-239.753 -201.446)" fill="#fecbaa"/><path d="M212.674,203.834v16.822a1.933,1.933,0,0,1-.8-1.57v-1.917a1.934,1.934,0,0,1-.8,1.57V203.834a.8.8,0,0,1,1.6,0Zm0,0" transform="translate(-206.401 -201.446)" fill="#fecbaa"/><path d="M167.7,188.563v3.821l-.038.006a3.519,3.519,0,0,1-1.566-.365v-3.462a.8.8,0,1,1,1.6,0Zm0,0" transform="translate(-166.094 -187.761)" fill="#fecbaa"/></g></g></g></svg>