<svg xmlns="http://www.w3.org/2000/svg" width="114" height="114" viewBox="0 0 114 114"><g transform="translate(-335 -438)"><circle cx="57" cy="57" r="57" transform="translate(335 438)" fill="#ff3980" opacity="0.16"/><g transform="translate(367.142 477.353)"><path d="M49.332,14.826c0,4.171-1.554,7.991-4.892,12.018-2.987,3.6-7.278,7.261-12.247,11.5-1.7,1.447-3.623,3.087-5.619,4.834a2.9,2.9,0,0,1-1.89.716h-.017a2.893,2.893,0,0,1-1.907-.717c-1.993-1.743-3.914-3.381-5.609-4.826l-.009-.006c-4.969-4.235-9.262-7.893-12.248-11.5C1.555,22.817,0,19,0,14.826A15.419,15.419,0,0,1,3.914,4.3,13.265,13.265,0,0,1,13.782,0a12.41,12.41,0,0,1,7.751,2.675,15.83,15.83,0,0,1,3.133,3.273l.017-.023A15.823,15.823,0,0,1,27.8,2.675,12.408,12.408,0,0,1,35.551,0,13.263,13.263,0,0,1,45.418,4.3a15.417,15.417,0,0,1,3.914,10.53Zm0,0" transform="translate(0 0)" fill="#ff5e95"/><path d="M280.828,14.825c0,4.171-1.554,7.991-4.892,12.018-2.987,3.6-7.278,7.261-12.247,11.5-1.7,1.447-3.623,3.087-5.619,4.834a2.9,2.9,0,0,1-1.89.716V5.925a15.824,15.824,0,0,1,3.117-3.25A12.408,12.408,0,0,1,267.047,0,13.262,13.262,0,0,1,276.915,4.3a15.417,15.417,0,0,1,3.914,10.53Zm0,0" transform="translate(-231.497 0)" fill="#ff3980"/></g></g></svg>