<svg xmlns="http://www.w3.org/2000/svg" width="26.595" height="26.436" viewBox="0 0 26.595 26.436"><g transform="translate(0.501 0.498)"><ellipse cx="1.756" cy="1.756" rx="1.756" ry="1.756" transform="translate(17.755 4.031)" fill="#323232" stroke="#323232" stroke-width="1"/><path d="M-2112.091,112.851c-.116,2.23-.089,4.478-.381,6.685a6.236,6.236,0,0,1-6.038,5.756,125.3,125.3,0,0,1-12.865.017,6.16,6.16,0,0,1-6.1-5.975,115.586,115.586,0,0,1,0-13.123,6.057,6.057,0,0,1,5.847-5.918,96.287,96.287,0,0,1,12.6-.1c4.36.28,6.557,2.915,6.767,7.4.081,1.75.013,3.507.013,5.26Zm-12.807-10.443c-1.8,0-3.6-.059-5.4.013-3.212.13-4.955,1.841-5.031,5.049-.083,3.508-.092,7.021,0,10.528q.127,4.988,5.082,5.134,5.261.15,10.528,0c3.31-.093,5.024-1.823,5.1-5.116q.127-5.261,0-10.528c-.083-3.267-1.848-4.956-5.148-5.074C-2121.474,102.355-2123.187,102.4-2124.9,102.408Z" transform="translate(2137.659 -100.028)" fill="#323232" stroke="#323232" stroke-width="1"/><path d="M-2107.731,136.607a6.508,6.508,0,0,1-6.64-6.525,6.562,6.562,0,0,1,6.6-6.588,6.549,6.549,0,0,1,6.5,6.546A6.5,6.5,0,0,1-2107.731,136.607Zm-.065-10.788a4.291,4.291,0,0,0-4.267,4.286,4.29,4.29,0,0,0,4.223,4.191,4.264,4.264,0,0,0,4.262-4.144A4.286,4.286,0,0,0-2107.8,125.819Z" transform="translate(2120.505 -117.313)" fill="#323232" stroke="#323232" stroke-width="1"/></g></svg>