<svg xmlns="http://www.w3.org/2000/svg" width="26.788" height="26.788" viewBox="0 0 26.788 26.788"><path d="M25.8,25.908H25.8V16.083c0-4.806-1.035-8.509-6.654-8.509a5.833,5.833,0,0,0-5.254,2.888h-.078V8.023H8.489V25.907h5.547V17.051c0-2.332.442-4.586,3.33-4.586,2.845,0,2.888,2.661,2.888,4.736v8.707Z" transform="translate(0.986 0.88)" fill="#323232"/><path d="M.4,7.977H5.95V25.861H.4Z" transform="translate(0.046 0.927)" fill="#323232"/><path d="M3.217,0A3.232,3.232,0,1,0,6.434,3.217,3.218,3.218,0,0,0,3.217,0Z" transform="translate(0 0)" fill="#323232"/></svg>
