<svg xmlns="http://www.w3.org/2000/svg" width="114" height="114" viewBox="0 0 114 114"><g transform="translate(-1471 -438)"><circle cx="57" cy="57" r="57" transform="translate(1471 438)" fill="#344a5e" opacity="0.16"/><g transform="translate(1498.683 441.334)"><g transform="translate(0 45.254)"><circle cx="4.617" cy="4.617" r="4.617" transform="translate(6.925)" fill="#55c0eb"/><path d="M23.084,461.7a3.222,3.222,0,0,0-3.28-3.037H3.28A3.305,3.305,0,0,0,0,461.7Z" transform="translate(0 -428.05)" fill="#55c0eb"/></g><path d="M34.562,427.733H18.768a1.661,1.661,0,0,0-1.7,1.7h0a1.694,1.694,0,0,0,1.7,1.822H34.562a1.661,1.661,0,0,0,1.7-1.7h0A1.765,1.765,0,0,0,34.562,427.733Z" transform="translate(-15.123 -355.386)" fill="#8ad7f8"/><path d="M32,294.463h0c2.308-2.794,3.888-17.13,3.888-17.13h8.019s1.579,14.336,3.888,17.13H32Z" transform="translate(-28.355 -222.116)" fill="#55c0eb"/><path d="M57.381,247.467H48.755a1.869,1.869,0,0,0-1.822,1.822h0a1.869,1.869,0,0,0,1.822,1.822h8.626a1.869,1.869,0,0,0,1.822-1.822h0A1.789,1.789,0,0,0,57.381,247.467Z" transform="translate(-41.587 -195.652)" fill="#8ad7f8"/><g transform="translate(35.233 45.254)"><circle cx="4.617" cy="4.617" r="4.617" transform="translate(6.925)" fill="#344a5e"/><path d="M332.417,461.7a3.222,3.222,0,0,0-3.28-3.037H312.613a3.305,3.305,0,0,0-3.28,3.037Z" transform="translate(-309.333 -428.05)" fill="#344a5e"/></g><path d="M343.895,427.733H328.1a1.661,1.661,0,0,0-1.7,1.7h0a1.661,1.661,0,0,0,1.7,1.7h15.794a1.661,1.661,0,0,0,1.7-1.7h0A1.738,1.738,0,0,0,343.895,427.733Z" transform="translate(-289.223 -355.386)" fill="#415a6b"/><path d="M342.4,294.463h0c2.308-2.794,3.766-17.13,3.766-17.13h8.019s1.579,14.336,3.888,17.13H342.4Z" transform="translate(-303.401 -222.116)" fill="#344a5e"/><path d="M367.782,247.467h-8.626a1.869,1.869,0,0,0-1.822,1.822h0a1.869,1.869,0,0,0,1.822,1.822h8.626a1.869,1.869,0,0,0,1.822-1.822h0A1.868,1.868,0,0,0,367.782,247.467Z" transform="translate(-316.634 -195.652)" fill="#415a6b"/><path d="M204.854,33.348a1.679,1.679,0,0,0-.729,1.336c0,.729.607,1.458,1.7,1.944h5.71c.972-.486,1.7-1.093,1.7-1.944a1.679,1.679,0,0,0-.729-1.336,2.271,2.271,0,0,0,2.308-1.944,1.679,1.679,0,0,0-.729-1.336,2.634,2.634,0,0,0-1.7-.607h0v-.85c0-1.093-1.579-1.944-3.645-1.944s-3.645.85-3.645,1.944a2.736,2.736,0,0,0,.122.85h0c-1.336,0-2.551.85-2.551,1.944A2.237,2.237,0,0,0,204.854,33.348Z" transform="translate(-179.583 0)" fill="#f3705a"/><g transform="translate(14.822 36.021)"><rect width="19.196" height="2.673" transform="translate(4.495 37.42)" fill="#f05540"/><path d="M158.927,452.252a4.436,4.436,0,0,0-4.5-4.252h-19.8a4.523,4.523,0,0,0-4.5,4.252Z" transform="translate(-130.133 -409.365)" fill="#f05540"/><path d="M173.867,142.575l4.617-22.962L174.353,108.8h17.738l-4.131,10.813,4.617,22.962Z" transform="translate(-168.886 -108.8)" fill="#f05540"/></g><g transform="translate(17.374 45.133)"><path d="M173.674,405.333h-18.71a2.437,2.437,0,0,0-2.43,2.43h0a2.437,2.437,0,0,0,2.43,2.43h18.71a2.437,2.437,0,0,0,2.43-2.43h0A2.437,2.437,0,0,0,173.674,405.333Z" transform="translate(-152.534 -380.67)" fill="#f3705a"/><path d="M200.179,226.133H187.058a1.477,1.477,0,0,0-1.458,1.458h0a1.477,1.477,0,0,0,1.458,1.458h13.121a1.477,1.477,0,0,0,1.458-1.458h0A1.564,1.564,0,0,0,200.179,226.133Z" transform="translate(-181.834 -221.881)" fill="#f3705a"/><path d="M210.185,188.8H199.858a1.477,1.477,0,0,0-1.458,1.458h0a1.477,1.477,0,0,0,1.458,1.458h10.327a1.477,1.477,0,0,0,1.458-1.458h0A1.564,1.564,0,0,0,210.185,188.8Z" transform="translate(-193.176 -188.8)" fill="#f3705a"/></g></g></g></svg>