<svg xmlns="http://www.w3.org/2000/svg" width="114" height="114" viewBox="0 0 114 114"><g transform="translate(-1081 -438)"><circle cx="57" cy="57" r="57" transform="translate(1081 438)" fill="#ffd300" opacity="0.16"/><g transform="translate(1112 469)"><path d="M52.241,26.12A26.121,26.121,0,0,1,7.65,44.591,26.121,26.121,0,0,1,44.59,7.65a25.95,25.95,0,0,1,7.651,18.47Zm0,0" transform="translate(0.001 0.001)" fill="#ffe171"/><path d="M282.12,26.121A26.121,26.121,0,0,1,256,52.242V0A26.121,26.121,0,0,1,282.12,26.121Zm0,0" transform="translate(-229.879 0)" fill="#ffd300"/><path d="M180.125,272.379a9.727,9.727,0,1,1-19.454,0h3.061a6.666,6.666,0,1,0,13.331,0Zm0,0" transform="translate(-144.278 -244.587)" fill="#b26d3c"/><path d="M39.947,227.555a4.943,4.943,0,1,0,4.944,4.943A4.949,4.949,0,0,0,39.947,227.555Zm0,0" transform="translate(-31.432 -204.336)" fill="#f95858"/><path d="M385.045,227.555a4.943,4.943,0,1,0,4.943,4.943A4.949,4.949,0,0,0,385.045,227.555Zm0,0" transform="translate(-341.318 -204.336)" fill="#ea1b5f"/><path d="M127.555,158.344h-3.061a2.619,2.619,0,1,0-5.238,0H116.2a5.68,5.68,0,1,1,11.36,0Zm0,0" transform="translate(-104.339 -137.087)" fill="#b26d3c"/><g transform="translate(26.121 15.577)"><path d="M295.829,158.344h-3.061a2.619,2.619,0,1,0-5.238,0h-3.061a5.68,5.68,0,1,1,11.36,0Zm0,0" transform="translate(-281.564 -152.664)" fill="#7a3d06"/><path d="M265.727,272.379A9.738,9.738,0,0,1,256,282.106v-3.061a6.674,6.674,0,0,0,6.666-6.666Zm0,0" transform="translate(-256 -260.164)" fill="#7a3d06"/></g></g></g></svg>